<?xml version="1.0" encoding="UTF-8"?>
<svg id="Layer_2" data-name="Layer 2" xmlns="http://www.w3.org/2000/svg" viewBox="0 0 1704.56 2390.78">
  <defs>
    <style>
      .cls-1 {
        fill: #eaeae9;
      }

      .cls-1, .cls-2, .cls-3, .cls-4, .cls-5, .cls-6, .cls-7, .cls-8, .cls-9, .cls-10, .cls-11, .cls-12, .cls-13, .cls-14 {
        stroke-miterlimit: 10;
      }

      .cls-1, .cls-2, .cls-3, .cls-4, .cls-5, .cls-6, .cls-7, .cls-8, .cls-10, .cls-11, .cls-12, .cls-13, .cls-14 {
        stroke: #231f20;
      }

      .cls-1, .cls-3 {
        stroke-width: 4.21px;
      }

      .cls-2, .cls-8 {
        stroke-width: 4.6px;
      }

      .cls-2, .cls-15, .cls-16 {
        fill: #00b1dc;
      }

      .cls-3, .cls-17, .cls-14 {
        fill: #231f20;
      }

      .cls-17, .cls-18, .cls-19, .cls-20, .cls-15, .cls-21, .cls-22, .cls-16, .cls-23 {
        stroke-width: 0px;
      }

      .cls-18, .cls-11 {
        fill: #0a0203;
      }

      .cls-4 {
        fill: #f5ec43;
      }

      .cls-4, .cls-5, .cls-6, .cls-7, .cls-9, .cls-10, .cls-12, .cls-14 {
        stroke-width: 4.6px;
      }

      .cls-19 {
        opacity: .38;
      }

      .cls-19, .cls-22 {
        fill: #c77161;
      }

      .cls-5 {
        fill: #b4b6b7;
      }

      .cls-6 {
        fill: #fce0ce;
      }

      .cls-7 {
        fill: #b6a69e;
      }

      .cls-20, .cls-8 {
        fill: #a1cf6d;
      }

      .cls-21 {
        fill: #005ba7;
      }

      .cls-9 {
        fill: none;
        stroke: #fff;
      }

      .cls-10 {
        fill: #816c5d;
      }

      .cls-16 {
        opacity: .15;
      }

      .cls-23, .cls-13 {
        fill: #fff;
      }

      .cls-12 {
        fill: #ad9282;
      }

      .cls-13 {
        stroke-width: 4.6px;
      }
    </style>
  </defs>
  <g id="Bakgrunn">
    <g>
      <path class="cls-2" d="M1697.45,1875.76c-31.77-77.49-71.03-145.59-119.32-190.22-11.09-9-22.46-18.66-34.2-28.18.42.29.88.49,1.28.82-29.08-23.05-59.9-46.19-94.75-55.98.88-.16-247.68-83.39-372.12-85.12-368.58-8.32-851.08,151.01-1067.25,473.07v398.34h1686.36v-512.72Z"/>
      <path class="cls-8" d="M918.7,2201.45c-15.06-4.75-35.94,3.05-45.12-9.46-6.24-8.5-18.14,3.01-26.97,1.89-4.4-.55-13.34,2.05-14.75,2.79-14.57,7.65-31.76,2.5-37.32-10.85-2.01-6.58-14.8-.7-14-11.04-4.05-20.65-1.25-43.47,6.62-64.38,3.5-15.59-4.43-34.49,4.59-48.72,11.18-1.56-.59-8.59,3.19-12.8,12.51-3.96,9.25-26.31,18.67-26.02,6.79-.1,9.77-5.47,13.93-9.24,22.59,4.59,52.82,1.53,68.65,25.15,2.42-3.42,4.92-7.3,6.79-.08.42,14.72,19.11,18.9,20.04,30.11-.17,2.84.29,4.89,3.92,5.83,14.31,2.89,4.49,24.32,19.81,25.72,4.78,3.07,4.7,11.74,12.02,12.62,3.13.97,3.64,2.58,3.63,5.2-2.62,9.26,11.68,13.9,5.06,22.07-4.18,16.96-.43,43.08-20.28,51.44-4.02,13.15-15.82,15.1-28.47,9.76Z"/>
      <path class="cls-8" d="M1014.99,1620.2c-.42,7.02-9.68,7.95-5.89,16.05.88,1.8.45,4.66-1.92,5.6-11.35,6.48,7.58,22.36-9.69,25.81-3.92,26.66,18.74,50.86,24.13,76.36,11.64,28.85-12.22,63.24-38.99,73.36-5.05.64-46.31,18.52-46.31,18.52-13.15,7.75-32.55-10.28-43.22-15.79-16.68-8.62-21.87-33-31.2-50.46-15.68-16.63-27.73-42.22-53.8-41.69-7.79-4.77-18.38-12.16-27.53-7.71-53.24.61-114.97-92.63-108.39-140.08,17.66-43.81,453.03-110.13,408.33-37.37,0,0,3.97,8.24-.31,12.7h0c-7.47,6.95-18.48,13.53-27.26,19.61-5.69,5.11-4.03,18.06-13.47,17.8-3.4-.4-3.92,1.79-4.54,4.23-4.89,8.97-12.94,15.68-19.92,23.06Z"/>
      <path class="cls-8" d="M461.88,1771.35c-23.51,56.58-3.93,128.27-52.36,174.56-11.57,12.97-35.21,6.56-43.5,16.71-10.02,7.98-28.22,12.36-37.91,23.69-47.07,25.19-94.76,76.24-76.47,133.38,9.74,19.9-20.42,32.97-28.97,49.23-24.9,23.34-41.9,57.73-76.67,67.78-20.08,6.37-25.34-21.52-39.94-28.89-35.8-39.63,38.77-93.51,4.19-137.44-7.86-19.63-30.97-37.18-25.55-60.5,22.45-20.61,26.2-54.98,53.46-71.19,8.56-23.89,32.94-39.38,29.78-66.33,13.89-18.2-1.86-52.34,16.68-68.06,97.52-82.73,221.57-141.86,338.28-188.42,18.26-1.77,18.9,20.41,22.61,32.78-1.19,8.9-15.02,17.43-22.38,23.56-2.83.84-1.83,8.46-5.33,11.64,2.42,3.71,5.06-1.58,7.37.78-1.31,4.88-6.13,3.3-9.14,4.98-2.81,1.57-8.49.18-6.97,6.51-1.73,3.22-8.97,1.6-9.4,7.73-10.3,23.12-24.82,45.87-37.76,67.5Z"/>
      <path class="cls-8" d="M1682.23,2384.84c5.14-1.36,10.21-2.32,15.22-2.9v-556.28c-32.32-51.63-71.37-99.07-119.37-140.33,0,0-79.22-69.31-127.62-83.13,0,0-24.72-3.38-35.69-.59-12.04,31.28-41.82,58.44-36.25,94.94,12.23,26.99,36.07,47.82,52.5,73.06,97.9,85.58-22.65,191.21,45.19,298.28,20.4,61.7-26.73,117.2-66.72,152.07-25.66,35.34-12,78.85-25.22,117.43-10.21,6.18-7.93,17.16-12.83,25.55-6.61,6.12-10.99,13.75-13.32,21.9h324.12Z"/>
    </g>
  </g>
  <g id="Layer_3" data-name="Layer 3">
    <rect class="cls-21" x="11.78" y="2298.61" width="1683.09" height="85.33"/>
    <path class="cls-19" d="M1694.87,1482.07l-6.24-6.38c-59.28-54.58-253.31-158.46-481.99-158.46-336.22,0-446.34,169.43-842.11,161.06-220.13-4.66-313.71-69.06-353.43-126.09v748.63c198.45-245.21,501.86-401.99,841.89-401.99s643.44,156.78,841.89,401.99v-618.77Z"/>
    <path class="cls-16" d="M11.78,541.72v811.47c40.11,56.78,133.88,120.47,352.74,125.1,395.77,8.37,505.89-161.06,842.11-161.06,228.69,0,422.71,103.88,481.99,158.46l6.24,6.38v-940.35H11.78Z"/>
    <path class="cls-21" d="M1701.1,832.05L1694.84,0H11.09v718.68c32.01-11.39,64.79-19.63,98.35-30.2,242.41-59.08,570.18-28.28,815.14,41.76,217.73,65.25,483.36,204.77,778.94,102.25.36-.12.7-.28,1.05-.43h-3.46Z"/>
    <path class="cls-23" d="M700.08,2315.21c3.7.46,1.83,7.79-1.28,7.28-4.36-.83-2.82-7.49,1.28-7.28Z"/>
    <g>
      <path class="cls-17" d="M1288.31,1551.01c5.57,12.66,16.12,22.01,25.04,32.25,2.19,2.51,4.29,5.09,6.19,7.82.9,1.3,2.13,2.59,1.69,4.25-.52,1.95-1.44,3.84-2.15,5.73-2.91,7.72-5.52,15.56-7.83,23.48-2.61,8.99-4.82,18.1-6.63,27.29-.26,1.32.38,2.7,1.75,3.08,1.23.34,2.81-.42,3.08-1.75,3.27-16.59,7.85-32.91,13.71-48.76.74-2.01,1.51-4.01,2.29-6.01s1.3-4.04.57-6.1c-.63-1.78-1.85-3.34-2.95-4.86s-2.14-2.86-3.26-4.25c-4.43-5.48-9.4-10.49-14.1-15.73-5.16-5.75-9.94-11.86-13.07-18.97-.54-1.24-2.35-1.52-3.42-.9-1.27.75-1.44,2.18-.9,3.42h0Z"/>
      <g>
        <path class="cls-10" d="M1021.8,1433.57c-11.74-1.81-10.76-21.49.65-23.22,6.45-.17,12.59,6.58,12.08,12.97-.96,5.45-6.9,11.41-12.73,10.25Z"/>
        <path class="cls-17" d="M1198.74,1676.7c-7.25-10.43-22.37-17.18-35.34-21.22-8.63-2.69-17.94-3.56-27.02-2.62-6.7.69-9.42,8.08-4.54,12.26,7.01,6.01,15.56,10.58,24.83,13.15,13.67,3.8,28.8,3.24,42.07-1.57Z"/>
        <path class="cls-17" d="M1307.17,1653.02c17.92-3.15,35.31-11.09,53.45-9.06,2.77.31,5.67.93,7.63,2.64,3.15,2.75,2.69,7.53,0,10.62-2.69,3.09-7.02,4.79-11.31,5.93-16.94,4.51-35.27-1.35-49.76-10.13Z"/>
        <path class="cls-4" d="M1179,1493.16c-.03,17.14-.55,43.74-.58,60.88,0,1.27.04,2.66.87,3.63.84.98,2.25,1.22,3.53,1.39,22.52,2.98,45.2,4.84,67.91,5.57.34-12.55-1.39-25.16-5.12-37.16,8.23,7.58,14.79,16.98,19.05,27.33,18.34-3.46,36.67-6.93,55.01-10.39-3.89-20.87-7.77-41.73-11.66-62.6-.49-2.63-1.24-12.85-3.53-14.23-1.97-1.2-4.48-.82-6.75-.4-42.68,7.92-77.21,13.29-118.72,25.98Z"/>
        <path class="cls-17" d="M1035.22,1423.89c20.32-.29,40.64,1.75,60.47,6.18,5.59,1.25,11.14,2.68,16.64,4.29,1.08.32,2.25-.22,2.82-1.15,5.59-9.03,14.01-16.35,23.83-20.46,1.24-.52,2.14-1.65,1.75-3.08-.32-1.17-1.82-2.27-3.08-1.75-11.08,4.64-20.48,12.53-26.82,22.76l2.82-1.15c-19.85-5.8-40.37-9.27-61.02-10.33-5.8-.3-11.61-.4-17.42-.31-3.21.05-3.22,5.05,0,5h0Z"/>
        <path class="cls-8" d="M1128.35,1397.86c1.37,12.47,6.16,24.56,13.69,34.59,9.03-8.62,18.05-17.23,27.08-25.85,1.46,31.13,2.92,62.25,4.37,93.38,44.92-15.21,91.81-24.6,139.12-27.86-7.86-29.07-15.73-58.14-23.59-87.21-.77-2.86-1.55-5.84-1.03-8.76.49-2.72,2.07-5.1,3.63-7.39,11.69-17.08,24.36-33.49,37.94-49.12-7.51-9.86-15.48-19.36-23.87-28.48-18.79,15.96-37.58,31.91-56.38,47.87-2.63,2.23-5.33,4.51-8.57,5.69-3.48,1.27-7.29,1.17-10.99,1.05-15.22-.48-30.44-.95-45.66-1.43-2.38-.07-4.85-.14-7.07.73-2.47.96-4.36,2.96-6.16,4.9-13.82,14.87-28.7,33.01-42.52,47.87Z"/>
        <path class="cls-17" d="M1317.8,1305.2c2.44-1.73,4.88-3.45,7.31-5.18,2.11-1.49,4.58-2.88,6.19-4.94,1.74-2.22,1.77-4.86,1.65-7.56s-.18-5.53-.18-8.3c.02-11.08,1.07-22.16,3.17-33.04,1.2-6.21,2.73-12.35,4.57-18.4.94-3.09-3.89-4.4-4.82-1.33-3.15,10.36-5.35,20.97-6.64,31.72-.64,5.34-1.04,10.7-1.2,16.08-.08,2.77-.1,5.53-.06,8.3.04,2.55.47,5.27.19,7.81-.27,2.4-3.04,3.67-4.8,4.92-2.64,1.87-5.28,3.74-7.92,5.61-1.1.78-1.62,2.18-.9,3.42.64,1.09,2.31,1.68,3.42.9h0Z"/>
        <path class="cls-17" d="M1206.08,1564.09c-3.11,28.97-5.79,57.99-8.04,87.04-.63,8.19-1.23,16.39-1.8,24.59-.09,1.35,1.22,2.5,2.5,2.5,1.43,0,2.41-1.15,2.5-2.5,2.01-29.07,4.44-58.11,7.31-87.11.81-8.18,1.65-16.35,2.53-24.53.14-1.34-1.25-2.5-2.5-2.5-1.47,0-2.36,1.15-2.5,2.5h0Z"/>
        <g>
          <g>
            <g>
              <g>
                <path class="cls-10" d="M1253.42,1209.2c58.87,30.64,18.37,133.07-45.13,121.74-34.43-10.65-54.84-57.44-40.63-90.32,14.85-27.14,57-48,85.76-31.42Z"/>
                <path class="cls-14" d="M1198.39,1244.34c-20.62.93-21.62,38.74-4.33,44.31,28.28,6.84,28.54-43.03,4.33-44.31Z"/>
              </g>
              <path class="cls-17" d="M1250.81,1242.53c-26.89-1.02-29.51,51.18,1.06,46.54.87-.13,1.75-.23,2.62-.35,20.08-2.62,15.17-34.17,1.48-44.4-1.49-1.11-3.3-1.73-5.16-1.8Z"/>
              <path class="cls-23" d="M1247.42,1286.12c-8.09.49-11.33-8.74-9.22-10.77,6.11-6.14,13.96-10.71,22.63-7.56,0,0,1.93.53,2.06,2.74.52,8.55-1.03,14.71-15.47,15.6Z"/>
              <path class="cls-23" d="M1252.14,1246.61c10.07,4.38,3.52,9.24-2.73,9.61-2.67.16-4.54-1.01-6.41-2.49-2.08-1.65-1.73-5.22.63-6.19,2.81-1.16,6.53-1.59,8.51-.92Z"/>
            </g>
            <path class="cls-23" d="M1195.37,1284.68c3.09.57,6.25.19,9.12-1.07,2.62-1.15,5.06-2.81,5.68-5.59,11.61-26.36-38.95,2.22-14.8,6.66Z"/>
            <path class="cls-23" d="M1199.7,1260.85c17.24-1.26,1.52-17.23-6.09-10.69-1.28,1.1-1.74,2.9-1.14,4.48,1.22,3.21,3.59,6.27,7.23,6.21Z"/>
          </g>
          <path class="cls-17" d="M1213.99,1304.23c8.12-.5,16.24-.99,24.36-1.49,3.2-.19,3.22-5.2,0-5-8.12.5-16.24.99-24.36,1.49-3.2.19-3.22,5.2,0,5h0Z"/>
        </g>
        <g>
          <g>
            <path class="cls-18" d="M1321.87,1183.77c-5.75,7.92-12.56,15.82-13.81,25.53-.28,2.19-.21,4.57,1.06,6.37.95,1.34,2.44,2.17,3.87,2.95,11.69,6.41,23.38,12.81,35.07,19.22,1.58.87,3.26,1.76,5.06,1.74,2.52-.02,4.66-1.77,6.48-3.51,18.78-17.8,29.27-42.53,45.5-62.68,5.24-6.5,11.36-15.35,6.7-22.28-1.48-2.2-3.81-3.64-6.09-4.99-13.99-8.28-24.47-15.5-39.56-21.56-1.96-.79-4.07-1.57-6.14-1.18-2.3.43-4.09,2.21-5.66,3.95-4.56,5.08-23.16,43.57-32.49,56.43Z"/>
            <path class="cls-17" d="M1319.71,1182.5c-3.54,4.87-7.38,9.58-10.22,14.91-1.42,2.66-2.62,5.49-3.33,8.43s-1.19,6.23-.16,9.13c1.18,3.34,4.12,4.92,7.05,6.53,3.22,1.76,6.43,3.52,9.65,5.28,6.43,3.52,12.86,7.05,19.29,10.57,2.89,1.59,5.98,3.82,9.25,4.52s6.39-.79,8.95-2.95c4.58-3.87,8.56-8.64,12.25-13.34,7.58-9.66,13.93-20.17,20.53-30.5,3.29-5.14,6.64-10.25,10.26-15.16s7.71-9.25,10.38-14.63,3.56-11.6-.48-16.58c-1.94-2.39-4.73-3.91-7.33-5.46-2.81-1.67-5.6-3.38-8.39-5.07-5.26-3.2-10.54-6.38-15.99-9.26-2.8-1.48-5.64-2.88-8.52-4.18-3.03-1.37-6.25-3.06-9.53-3.71-8.35-1.64-12.81,7.06-16.23,13.11-8.35,14.78-15.67,30.21-24.83,44.54-.83,1.3-1.68,2.58-2.59,3.83-.79,1.1-.19,2.79.9,3.42,1.26.74,2.63.2,3.42-.9,4.27-5.91,7.78-12.4,11.31-18.77,4.14-7.49,8.15-15.05,12.23-22.57,1.66-3.06,3.33-6.12,5.08-9.13.63-1.09,1.28-2.18,1.95-3.25.26-.41.52-.82.8-1.22.12-.17.24-.34.36-.51.24-.34.43-.49.03-.06,1.27-1.37,2.58-3.2,4.52-3.63,1.33-.3,2.67.15,3.91.6,1.52.55,3.02,1.19,4.5,1.84,5.49,2.4,10.81,5.16,16.01,8.14s10.02,5.98,15.01,9c2.57,1.56,5.34,2.95,7.74,4.77,1.83,1.38,3.23,3.26,3.45,5.6.49,5.1-3.26,10.15-6.16,13.98-3.44,4.55-6.98,8.99-10.2,13.71-6.53,9.58-12.38,19.6-18.91,29.18-3.18,4.66-6.51,9.22-10.17,13.51-1.87,2.2-3.83,4.33-5.88,6.37-1.61,1.6-3.69,4.19-6.1,4.49-1.23.16-2.41-.44-3.46-.99-1.57-.83-3.12-1.71-4.68-2.56-3-1.64-5.99-3.28-8.99-4.92-6.06-3.32-12.13-6.65-18.19-9.97-1.44-.79-2.88-1.56-4.31-2.36-1.12-.63-2.44-1.29-3.02-2.52-1.03-2.19-.3-5.13.31-7.35,1.47-5.37,4.6-10.1,7.83-14.57,1.65-2.28,3.36-4.52,5.02-6.8.79-1.09.19-2.79-.9-3.42-1.26-.74-2.62-.2-3.42.9Z"/>
          </g>
          <path class="cls-9" d="M1388.63,1182.2c-9.44-2.98-10.12-16.29-7.02-24.34-29.06,89.73-70.49,14.4-24.23,17"/>
        </g>
      </g>
    </g>
    <g>
      <g>
        <path class="cls-17" d="M848.88,1488.01c.07,12.83.51,25.67.87,38.5.41,14.54.84,29.09.96,43.64.05,6.7.06,13.41-.18,20.11-.12,3.22,4.88,3.21,5,0,.46-12.82.17-25.67-.11-38.48-.32-14.55-.8-29.09-1.17-43.64-.17-6.7-.33-13.41-.36-20.12-.02-3.22-5.02-3.22-5,0h0Z"/>
        <path class="cls-17" d="M851.97,1591.39c12.12-2.48,23.89-8.74,36.16-7.14,1.87.24,3.83.73,5.16,2.08,2.13,2.16,1.82,5.93,0,8.37-1.82,2.43-4.75,3.77-7.65,4.67-11.46,3.55-23.86-1.06-33.67-7.98Z"/>
      </g>
      <g>
        <path class="cls-6" d="M955.87,1294.93c-8.88-7.89,2.62-23.89,13.14-19.16,5.51,3.35,7.01,12.36,3.11,17.45-3.76,4.06-11.99,5.84-16.25,1.71Z"/>
        <g>
          <path class="cls-15" d="M753.25,1330.87c-1.97,8.8-1.13,17.81-3.11,26.61,6.54,1.52,12.93,3.7,19.04,6.49,1.45.66,3.01,1.5,3.52,3.01.46,1.35-.09,2.82-.62,4.14-8.19,20.53-14.21,41.93-17.93,63.72,36.18-2.62,72.46-3.9,108.73-3.86-7-22.57-11.96-45.78-14.81-69.24,15.78-6.32,31.55-12.64,47.33-18.96-4.72-8.33-9.45-16.65-14.17-24.98-6.93,3.7-13.86,7.4-20.8,11.1-8.28,4.42-16.67,8.88-25.79,11.08-9.91,2.39-20.27,1.99-30.42,1-17.27-1.69-34.38-5.08-50.99-10.12Z"/>
          <path class="cls-17" d="M750.84,1330.21c-1.91,8.77-1.2,17.85-3.11,26.61-.28,1.28.37,2.75,1.75,3.08,5.87,1.38,11.64,3.24,17.16,5.67,1.04.46,2.25.88,3.15,1.59s.54,1.54.2,2.51c-1.02,2.87-2.22,5.69-3.28,8.55-4.29,11.63-7.88,23.51-10.77,35.57-1.62,6.76-3.01,13.57-4.19,20.41-.25,1.47.65,3.29,2.41,3.16,28.25-2.04,56.56-3.28,84.88-3.69,7.95-.12,15.9-.17,23.85-.16,1.58,0,2.89-1.6,2.41-3.16-5.39-17.44-9.59-35.23-12.53-53.25-.83-5.1-1.56-10.21-2.18-15.33l-1.84,2.41c15.78-6.32,31.55-12.64,47.33-18.96,1.49-.6,2.36-2.14,1.49-3.67-4.72-8.33-9.45-16.65-14.17-24.98-.68-1.21-2.24-1.53-3.42-.9-7.75,4.14-15.48,8.29-23.24,12.41-7.34,3.9-14.84,7.66-22.98,9.58-8.33,1.97-16.99,1.88-25.47,1.22s-17.28-1.86-25.82-3.44c-9.64-1.79-19.18-4.11-28.56-6.95-3.09-.93-4.41,3.89-1.33,4.82,17.14,5.18,34.78,8.63,52.61,10.3,8.79.82,17.66,1.09,26.4-.41s16.53-5.02,24.19-8.97c8.97-4.62,17.83-9.48,26.73-14.23l-3.42-.9c4.72,8.33,9.45,16.65,14.17,24.98l1.49-3.67c-15.78,6.32-31.55,12.64-47.33,18.96-.93.37-1.98,1.26-1.84,2.41,2.25,18.42,5.72,36.68,10.49,54.61,1.37,5.13,2.84,10.23,4.41,15.29l2.41-3.16c-28.32-.03-56.65.74-84.93,2.33-7.94.45-15.87.96-23.8,1.53l2.41,3.16c2.22-12.92,5.22-25.69,9.02-38.24,1.92-6.35,4.04-12.63,6.36-18.85.55-1.48,1.11-2.95,1.69-4.43.54-1.39,1.23-2.8,1.55-4.26.7-3.29-.93-5.93-3.8-7.46-3.09-1.65-6.49-2.88-9.78-4.04-3.54-1.25-7.14-2.3-10.79-3.16l1.75,3.08c1.91-8.77,1.2-17.85,3.11-26.61.68-3.14-4.13-4.48-4.82-1.33Z"/>
        </g>
        <g>
          <path class="cls-17" d="M775.62,1487.42c.12,14.32-.29,28.65-.76,42.96-.52,15.92-1.19,31.83-1.93,47.74-.35,7.53-.71,15.07-1.08,22.6-.16,3.22,4.84,3.21,5,0,.7-14.31,1.38-28.62,1.97-42.93.66-15.91,1.25-31.83,1.59-47.75.16-7.54.26-15.08.2-22.62-.03-3.22-5.03-3.22-5,0h0Z"/>
          <path class="cls-17" d="M775.04,1602.07c-10.81-7.14-25-8.94-37.96-8.81-4.38.04-9.25.77-12.01,4.18-1.09,1.34-1.76,3.1-1.47,4.81.48,2.79,3.26,4.56,5.94,5.48,4.6,1.58,9.59,1.69,14.44,1.32,10.6-.81,20.89-3.85,31.05-6.98Z"/>
        </g>
        <g>
          <path class="cls-22" d="M740.79,1501.67c26.71-3.13,53.57-4.88,80.46-5.71,20.85-.65,42.43-.62,61.59,7.62-6.34-19.87-12.31-50.93-18.65-70.8-.55-1.72-1.23-3.61-2.84-4.43-1.03-.53-2.24-.51-3.39-.48-32.99.88-65.99,1.77-98.98,2.65-.98.03-2.03.07-2.83.64-1.12.8-1.38,2.32-1.56,3.68-.54,4.25-13.26,62.57-13.8,66.83Z"/>
          <path class="cls-17" d="M740.79,1504.17c19.17-2.24,38.43-3.78,57.7-4.78,9.46-.49,18.92-.88,28.39-1.09,8.82-.2,17.67-.16,26.46.69,9.63.93,19.3,2.93,28.23,6.74.95.4,1.91.49,2.78-.2.76-.6,1.2-1.66.9-2.63-6.18-19.44-9.99-39.56-15.29-59.25-1.19-4.41-2.24-9.04-3.98-13.28-1.23-3.01-3.38-4.83-6.71-5.02-3.06-.17-6.21.13-9.27.21-13.1.35-26.2.7-39.29,1.05s-25.86.69-38.8,1.04c-3.23.09-6.47.17-9.7.26-2.77.07-6.26-.34-8.33,1.92-.87.95-1.35,2.21-1.58,3.47-.07.39-.12.79-.17,1.19-.12.91-.01-.16.03-.25-.04.06-.03.21-.04.29-.09.49-.17.98-.26,1.47-2.08,10.96-4.52,21.85-6.83,32.76-2.2,10.38-4.6,20.75-6.48,31.2-.1.57-.19,1.13-.26,1.7-.17,1.34,1.27,2.5,2.5,2.5,1.5,0,2.32-1.15,2.5-2.5-.17,1.31.05-.18.11-.53.12-.66.25-1.31.38-1.97.4-2.02.81-4.04,1.23-6.06,1.21-5.86,2.45-11.71,3.69-17.56,2.47-11.65,4.99-23.3,7.35-34.97.29-1.42.58-2.84.83-4.26.13-.73.19-1.47.36-2.19.18-.76.24-.99,1-1.08,1.55-.17,3.16-.1,4.72-.14,12.68-.34,25.37-.68,38.05-1.02,12.68-.34,25.37-.68,38.05-1.02,6.3-.17,12.6-.38,18.9-.51.96-.02,2.03-.18,2.73.61.65.74.9,1.87,1.19,2.78.66,2.08,1.28,4.17,1.88,6.27,5.48,19.18,9.29,38.8,14.79,57.97.6,2.09,1.22,4.17,1.88,6.24l3.67-2.82c-16.64-7.1-34.8-8.39-52.69-8.19-19.22.21-38.46,1.27-57.62,2.75-11.02.85-22.03,1.91-33.01,3.19-1.34.16-2.5,1.04-2.5,2.5,0,1.23,1.15,2.66,2.5,2.5Z"/>
        </g>
        <path class="cls-17" d="M889.21,1330.1c16.49-9.32,33.22-18.21,50.19-26.63,4.84-2.4,9.69-4.76,14.56-7.09,1.22-.58,1.54-2.32.9-3.42-.73-1.25-2.2-1.48-3.42-.9-17.09,8.17-33.96,16.78-50.59,25.85-4.74,2.59-9.46,5.21-14.16,7.87-2.8,1.58-.28,5.9,2.52,4.32h0Z"/>
        <path class="cls-17" d="M753.02,1342.7c-17.59-7.33-34.88-15.37-51.84-24.06l.9,3.42c6.1-8.4,10.72-17.81,13.73-27.75.93-3.09-3.89-4.41-4.82-1.33-2.89,9.54-7.37,18.49-13.22,26.55-.76,1.05-.22,2.85.9,3.42,17.35,8.89,35.04,17.07,53.04,24.56,1.25.52,2.75-.56,3.08-1.75.4-1.44-.49-2.55-1.75-3.08h0Z"/>
        <g>
          <g>
            <g>
              <g>
                <path class="cls-6" d="M856.74,1209.96c56.89,34.17,10.24,133.94-52.46,118.77-33.72-12.73-51.24-60.67-35.06-92.63,16.48-26.19,59.82-44.44,87.52-26.14Z"/>
                <path class="cls-14" d="M799.67,1241.69c-20.64-.32-23.94,37.36-7.02,43.96,27.81,8.55,31.11-41.22,7.02-43.96Z"/>
              </g>
              <path class="cls-17" d="M852.11,1243.07c-26.78-2.65-32.57,49.29-1.78,46.52.88-.08,1.76-.13,2.64-.19,20.2-1.39,17.22-33.19,4.18-44.23-1.42-1.2-3.19-1.93-5.04-2.11Z"/>
              <path class="cls-23" d="M846.07,1286.38c-8.1,0-10.77-9.41-8.55-11.31,6.48-5.76,14.59-9.84,23.05-6.17,0,0,1.89.65,1.89,2.86,0,8.56-1.92,14.62-16.39,14.62Z"/>
              <path class="cls-23" d="M853.19,1247.22c9.78,4.99,2.95,9.44-3.31,9.43-2.67,0-4.47-1.28-6.25-2.88-1.97-1.77-1.41-5.32,1.01-6.14,2.88-.98,6.62-1.19,8.55-.4Z"/>
            </g>
            <path class="cls-23" d="M794.2,1281.77c3.05.75,6.23.57,9.17-.51,2.69-.98,5.22-2.5,6.01-5.23,13.19-25.61-39.02-.16-15.18,5.74Z"/>
            <path class="cls-23" d="M799.98,1258.25c17.29-.2,2.57-17.1-5.43-11.04-1.35,1.02-1.92,2.79-1.41,4.41,1.03,3.27,3.21,6.48,6.84,6.63Z"/>
          </g>
          <path class="cls-17" d="M811.75,1302.42c8.14,0,16.27,0,24.41,0,3.22,0,3.22-5,0-5-8.14,0-16.27,0-24.41,0-3.22,0-3.22,5,0,5h0Z"/>
        </g>
        <g>
          <g>
            <path class="cls-17" d="M687.4,1256.68c-2.5,9.46-6.01,19.28-3.67,28.79.53,2.14,1.45,4.34,3.29,5.56,1.37.9,3.05,1.14,4.68,1.36,13.21,1.76,26.43,3.51,39.64,5.27,1.79.24,3.67.47,5.35-.2,2.34-.93,3.7-3.33,4.78-5.61,11.09-23.37,11.96-50.23,19.83-74.87,2.54-7.95,5.06-18.41-1.78-23.2-2.17-1.52-4.87-2.02-7.48-2.46-16.04-2.68-28.42-5.63-44.67-5.83-2.12-.03-4.36,0-6.16,1.11-1.99,1.23-3.02,3.53-3.85,5.72-2.42,6.38-5.88,48.99-9.95,64.35Z"/>
            <path class="cls-17" d="M684.99,1256.02c-1.78,6.7-3.95,13.37-4.44,20.33-.39,5.55.06,13.93,5.56,17.06,2.93,1.67,6.79,1.65,10.05,2.08,3.63.48,7.27.97,10.9,1.45,7.1.94,14.21,1.89,21.31,2.83,3.4.45,7.05,1.3,10.23-.45,2.54-1.4,4.04-4.07,5.23-6.6,2.72-5.79,4.88-11.83,6.64-17.97,3.56-12.39,5.59-25.15,8.27-37.74,1.34-6.3,2.84-12.57,4.77-18.72,1.54-4.91,3.09-10.05,2.91-15.25-.18-5.38-2.62-10.32-7.75-12.53-2.94-1.27-6.16-1.6-9.29-2.15-3.3-.57-6.6-1.17-9.9-1.76-6.23-1.11-12.48-2.14-18.78-2.8-3.32-.35-6.65-.59-9.99-.72-3.11-.11-6.54-.44-9.49.75-6.66,2.7-7.34,11.75-8.22,17.89-2.41,16.73-3.66,33.49-7.04,50.02-.29,1.43-.61,2.86-.98,4.28-.82,3.11,4,4.44,4.82,1.33,1.81-6.9,2.74-14.06,3.71-21.12,1.18-8.57,2.21-17.16,3.31-25.75.12-.92.24-1.85.36-2.77.14-1.04.17-1.26.3-2.22.22-1.64.46-3.28.71-4.91.34-2.23.67-4.5,1.27-6.68.39-1.41.98-2.91,1.87-4.08,1.55-2.04,4.19-1.86,6.5-1.83,6.11.1,12.22.6,18.27,1.45,6.04.85,12.03,1.96,18.03,3.03,3.09.55,6.22.99,9.29,1.63,2.32.48,4.69,1.25,6.19,3.14,2.52,3.19,1.99,8.09,1.19,11.97-1.09,5.29-3.02,10.39-4.37,15.62-3.05,11.78-4.97,23.81-7.58,35.69-1.3,5.9-2.77,11.77-4.63,17.52-.95,2.93-2,5.84-3.19,8.69-.97,2.33-1.93,5.03-3.53,7.02-1.83,2.28-4.59,1.61-7.16,1.27-3.3-.44-6.61-.88-9.91-1.32-6.86-.91-13.71-1.82-20.57-2.73-3.16-.42-6.43-.65-9.55-1.33-2.6-.57-3.58-2.39-4.19-4.84-1.51-6.07-.31-12.42,1.2-18.36.78-3.05,1.66-6.06,2.47-9.1s-3.99-4.44-4.82-1.33Z"/>
          </g>
          <path class="cls-9" d="M748.32,1231.34c-9.86.93-15.66-11.08-15.93-19.7,8.09,93.97-59.35,40.66-15.72,25.08"/>
        </g>
      </g>
    </g>
    <g>
      <g>
        <path class="cls-12" d="M216.82,1380.15c-8.88-7.89,2.62-23.89,13.14-19.16,5.51,3.35,7.01,12.36,3.11,17.45-3.76,4.06-11.99,5.84-16.25,1.71Z"/>
        <g>
          <g>
            <path class="cls-17" d="M462.14,1561.42c7.03,7.35,13.73,15.18,19.81,23.33,7.76,10.41,13.1,22.64,17.81,34.66,3.07,7.84,5.84,15.8,8.6,23.76.44,1.28,1.71,2.12,3.08,1.75,1.24-.34,2.19-1.79,1.75-3.08-4.98-14.36-10-28.77-16.74-42.42-2.73-5.53-5.66-11.02-9.3-16.01-3.26-4.49-6.78-8.79-10.36-13.03s-7.25-8.47-11.11-12.5c-2.23-2.33-5.76,1.21-3.54,3.54h0Z"/>
            <path class="cls-17" d="M393.45,1572.43c2.34,10.6,3.7,21.5,4.75,32.29.53,5.44.6,10.89,1.09,16.33.66,7.41,2.12,14.71,4.12,21.86,2.26,8.08,5.14,15.97,7.95,23.88.45,1.27,1.71,2.12,3.08,1.75,1.23-.34,2.2-1.8,1.75-3.08-4.94-13.87-10.14-27.87-11.72-42.61-.6-5.59-.62-11.22-1.14-16.82-.56-5.97-1.3-11.93-2.14-17.87s-1.68-11.43-2.92-17.07c-.69-3.14-5.51-1.81-4.82,1.33h0Z"/>
            <path class="cls-8" d="M369.49,1520.86c.03,15.27-.57,49.37-.54,64.64,13.56-8.81,31.45-10.55,46.45-4.52.16-13.53,2.3-27.03,6.34-39.94,5.35,13.56,10.07,27.38,14.12,41.38,15.22-10.95,33.38-17.77,52.04-19.56-5.51-12.27-11.03-24.54-16.54-36.81-.68-1.51-8.99-15.17-10.42-16-2.3-1.34-20.84-23.33-50.64-17.77-12.66,2.37-22.09,21.58-40.83,28.58Z"/>
            <path class="cls-4" d="M301.73,1407.66c13.75,15.27,43.53,24.91,51.76,43.74,2.05,4.7,2.94,9.81,3.67,14.88,2.77,19.28,3.46,38.85,2.07,58.28,34.78-12.77,73.3-25.59,107.95-12.45,3.67-4.59,1.62-11.31-.67-16.72-6.96-16.39-14.86-32.39-23.64-47.88,9.52,2.9,19.03,5.8,28.55,8.7.75-8.93,6.92-29.49,7.67-38.42-17.02-10.59-39.44-9.53-56.46-20.12-8.8,10.44-24.58,11.16-38.09,9.14-19.49-2.91-38.38-9.81-55.16-20.14-2.19-1.35-4.62-2.81-7.15-2.35-1.79.33-3.25,1.58-4.58,2.82-6.34,5.94-11.74,12.89-15.92,20.51Z"/>
            <path class="cls-17" d="M413.78,1666.12c-10.81-9.46-28.26-12.4-42.61-12.97-9.56-.37-19.18,1.49-27.94,5.31-6.47,2.82-6.67,11.92-.37,15.1,9.06,4.58,19.18,7.09,29.34,7.14,14.98.08,29.94-5.17,41.58-14.59Z"/>
            <path class="cls-17" d="M511.49,1643.37c.05-2.98,2.12-5.5,4.09-7.73,13.67-15.55,29-31.52,49.17-36.23.86-.2,1.77-.38,2.6-.1,1.88.62,2.34,3.08,2.18,5.06-.74,8.75-7.18,15.9-13.88,21.58-12.49,10.59-28.25,18.92-44.55,17.32"/>
          </g>
          <g>
            <g>
              <g>
                <path class="cls-7" d="M438.56,1302.56c14.83,32.61-4.7,79.78-38.93,91.07-63.28,12.52-105.69-89.13-47.41-120.87,28.44-17.12,70.98,2.94,86.34,29.8Z"/>
                <path class="cls-14" d="M413.07,1351.08c17.18-5.89,15.47-43.67-5.17-44.22-24.18,1.73-22.98,51.59,5.17,44.22Z"/>
              </g>
              <path class="cls-17" d="M349.83,1306.53c-14.38,11.17-18.98,44.89,2.47,47.28.93.1,1.87.19,2.8.32,32.66,4.33,28.82-51.24.19-49.62-1.98.11-3.9.8-5.46,2.02Z"/>
              <path class="cls-23" d="M359.66,1349.56c8.1.34,11.16-8.95,9.02-10.94-6.23-6.03-14.16-10.44-22.77-7.14,0,0-1.92.57-2.01,2.77-.36,8.56,1.3,14.69,15.76,15.3Z"/>
              <path class="cls-23" d="M354.2,1310.14c-9.99,4.57-3.35,9.3,2.91,9.56,2.67.11,4.52-1.09,6.36-2.61,2.05-1.69,1.63-5.25-.75-6.18-2.84-1.1-6.56-1.47-8.53-.76Z"/>
            </g>
            <path class="cls-23" d="M396.76,1340.77c.67,2.76,3.14,4.38,5.78,5.48,2.9,1.2,6.07,1.52,9.14.9,24.07-4.89-27.03-32.52-14.92-6.38Z"/>
            <path class="cls-23" d="M414.02,1317.06c.57-1.59.08-3.38-1.23-4.46-7.74-6.39-23.15,9.87-5.89,10.8,3.64,0,5.95-3.11,7.12-6.34Z"/>
          </g>
          <path class="cls-17" d="M476.36,1440.23c12.61.19,25.13,1.86,37.35,4.98,1.21.31,2.84-.39,3.08-1.75,3.15-18.08,6.29-36.16,9.44-54.24.23-1.33-.36-2.69-1.75-3.08-1.2-.33-2.84.41-3.08,1.75-3.15,18.08-6.29,36.16-9.44,54.24l3.08-1.75c-12.63-3.22-25.64-4.96-38.68-5.16-3.22-.05-3.22,4.95,0,5h0Z"/>
          <path class="cls-17" d="M305.59,1392.6c-17.52-5.79-35.31-10.79-53.29-14.93-5.1-1.18-10.22-2.29-15.36-3.33-1.32-.27-2.7.38-3.08,1.75-.34,1.23.42,2.8,1.75,3.08,18.09,3.68,36,8.19,53.67,13.52,5.01,1.51,10.01,3.1,14.98,4.74,3.06,1.01,4.37-3.81,1.33-4.82h0Z"/>
          <g>
            <g>
              <path class="cls-17" d="M498.61,1362.45c-2.5,9.46-6.01,19.28-3.67,28.79.53,2.14,1.45,4.34,3.29,5.56,1.37.9,3.05,1.14,4.68,1.36,13.21,1.76,26.43,3.51,39.64,5.27,1.79.24,3.67.47,5.35-.2,2.34-.93,3.7-3.33,4.78-5.61,11.09-23.37,11.96-50.23,19.83-74.87,2.54-7.95,5.06-18.41-1.78-23.2-2.17-1.52-4.87-2.02-7.48-2.46-16.04-2.68-28.42-5.63-44.67-5.83-2.12-.03-4.36,0-6.16,1.11-1.99,1.23-3.02,3.53-3.85,5.72-2.42,6.38-5.88,48.99-9.95,64.35Z"/>
              <path class="cls-17" d="M496.2,1361.79c-1.78,6.7-3.95,13.37-4.44,20.33-.39,5.55.06,13.93,5.56,17.06,2.93,1.67,6.79,1.65,10.05,2.08,3.63.48,7.27.97,10.9,1.45,7.1.94,14.21,1.89,21.31,2.83,3.4.45,7.05,1.3,10.23-.45,2.54-1.4,4.04-4.07,5.23-6.6,2.72-5.79,4.88-11.83,6.64-17.97,3.56-12.39,5.59-25.15,8.27-37.74,1.34-6.3,2.84-12.57,4.77-18.72,1.54-4.91,3.09-10.05,2.91-15.25-.18-5.38-2.62-10.32-7.75-12.53-2.94-1.27-6.16-1.6-9.29-2.15-3.3-.57-6.6-1.17-9.9-1.76-6.23-1.11-12.48-2.14-18.78-2.8-3.32-.35-6.65-.59-9.99-.72-3.11-.11-6.54-.44-9.49.75-6.66,2.7-7.34,11.75-8.22,17.89-2.41,16.73-3.66,33.49-7.04,50.02-.29,1.43-.61,2.86-.98,4.28-.82,3.11,4,4.44,4.82,1.33,1.81-6.9,2.74-14.06,3.71-21.12,1.18-8.57,2.21-17.16,3.31-25.75.12-.92.24-1.85.36-2.77.14-1.04.17-1.26.3-2.22.22-1.64.46-3.28.71-4.91.34-2.23.67-4.5,1.27-6.68.39-1.41.98-2.91,1.87-4.08,1.55-2.04,4.19-1.86,6.5-1.83,6.11.1,12.22.6,18.27,1.45s12.03,1.96,18.03,3.03c3.09.55,6.22.99,9.29,1.63,2.32.48,4.69,1.25,6.19,3.14,2.52,3.19,1.99,8.09,1.19,11.97-1.09,5.29-3.02,10.39-4.37,15.62-3.05,11.78-4.97,23.81-7.58,35.69-1.3,5.9-2.77,11.77-4.63,17.52-.95,2.93-2,5.84-3.19,8.69-.97,2.33-1.93,5.03-3.53,7.02-1.83,2.28-4.59,1.61-7.16,1.27-3.3-.44-6.61-.88-9.91-1.32-6.86-.91-13.71-1.82-20.57-2.73-3.16-.42-6.43-.65-9.55-1.33-2.6-.57-3.58-2.39-4.19-4.84-1.51-6.07-.31-12.42,1.2-18.36.78-3.05,1.66-6.06,2.47-9.1s-3.99-4.44-4.82-1.33Z"/>
            </g>
            <path class="cls-9" d="M559.28,1336.76c-9.86.93-15.66-11.08-15.93-19.7,8.09,93.97-59.35,40.66-15.72,25.08"/>
          </g>
        </g>
      </g>
      <path class="cls-17" d="M379.86,1384.65c8.14,0,16.27,0,24.41,0,3.22,0,3.22-5,0-5-8.14,0-16.27,0-24.41,0-3.22,0-3.22,5,0,5h0Z"/>
    </g>
    <g>
      <g>
        <path class="cls-20" d="M495.6,1213.15c-4.05-.55-8.41-.27-11.86,1.92-3.45,2.19-5.65,6.68-4.27,10.52l-.85,2.7c-4.94-.17-8.94,4.91-8.94,9.85,0,4.45,2.09,12.32,10.14,12.32,3.41,0,1.07,5.38,3.95,7.2l1.47-.41c.58,3.5,2.98,6.59,6.11,8.27s6.91,1.97,10.34,1.07c1.43-.38,2.28-.89,3.43-1.83.15-.13.49-.51.68-.62.06-.03.12-.05.18-.02.84.37,4.69,1.96,7.03.97,2.65-1.11,4.44-3.59,5.95-6.03,1.62-2.62,3.1-5.44,3.36-8.5l1.94,1.36c1.49,1.42,4.16.54,5.25-1.2s1.05-3.94.93-5.99c-.13-2.19-.41-4.58-1.98-6.1-2.02-1.95-5.23-1.65-8-1.23l2.55-3.3c1.68-2.28,1.64-5.67-.09-7.91-1.73-2.24-5-3.13-7.63-2.07l.34-.28c.36-3.47.62-7.31-1.49-10.09-2.36-3.11-6.85-3.67-10.72-3.12-2.51.36-5.06,1.13-6.94,2.83s-2.93,4.51-2,6.87"/>
        <path class="cls-17" d="M495.6,1210.65c-4.92-.64-10.25-.06-14.26,3.09-3.68,2.88-5.79,7.95-4.28,12.52v-1.33c-.28.9-.57,1.8-.85,2.7l2.41-1.84c-4.38-.04-8.24,2.85-10.08,6.72-1.55,3.25-1.62,6.77-.78,10.22.78,3.21,2.47,6.17,5.15,8.14,1.43,1.05,3.14,1.68,4.89,1.93.56.08,1.11.14,1.67.16-.11,0,.59.03.6.02-.06.07-.4-.06-.46-.11-.19-.14-.22-.25-.37-.39.24.23.05.11,0-.08.08.35.19.7.26,1.06.01.08.07.48,0,.05.03.21.05.41.08.62.07.51.13,1.03.23,1.53.18.88.5,1.76,1,2.51.82,1.22,2.08,2.23,3.63,1.91.5-.1.98-.27,1.47-.41l-3.08-1.75c.96,5.2,5.05,9.33,10,10.92,2.74.87,5.68.93,8.48.4,1.25-.24,2.5-.63,3.6-1.27.98-.57,1.76-1.36,2.64-2.06l-1.77.73.18-.02-1.26-.34c1.84.8,3.72,1.42,5.73,1.6,2.67.23,4.98-.94,6.91-2.7s3.3-3.98,4.55-6.18c1.52-2.64,2.6-5.39,2.91-8.44l-3.76,2.16c.63.44,1.26.87,1.88,1.32-.58-.42.27.24.54.4.35.2.74.38,1.13.48.91.25,1.87.26,2.79.06,3.87-.81,5.51-4.56,5.6-8.17.08-3.37-.23-7.45-2.77-9.95-2.79-2.75-6.89-2.4-10.43-1.87l2.82,3.67c2.13-2.77,4.39-5.29,4.09-9.08-.46-5.85-6.48-9.93-12.09-7.87l2.43,4.18c1.47-1.2,1.3-3.8,1.32-5.59.02-2.12-.26-4.23-1.13-6.17-1.68-3.76-5.39-5.61-9.31-6.07s-8.19.25-11.45,2.29c-3.5,2.2-5.86,6.52-4.42,10.65.45,1.27,1.71,2.12,3.08,1.75,1.24-.34,2.19-1.8,1.75-3.08-.82-2.34.8-4.33,2.81-5.39,2.21-1.17,5.05-1.47,7.51-1.28,2.13.16,4.35,1.01,5.39,2.99,1.22,2.34.78,5.35.53,7.86l.73-1.77-.34.28c-1.91,1.57.14,5.02,2.43,4.18,3.09-1.13,6.4,1.13,5.7,4.58-.38,1.86-2.23,3.57-3.35,5.03-.59.77-.35,2.09.2,2.78.68.85,1.59,1.05,2.63.9,1.66-.25,4.2-.68,5.57.59,1.44,1.33,1.31,4.22,1.31,6,0,.99-.02,2.23-.65,3.07-.15.2-.4.42-.71.55,0,0-.8.14-.46.14.17,0-.36-.16-.18-.03.22.16-.31-.23-.49-.37-.16-.12-.33-.23-.49-.35l-1.44-1.01c-1.71-1.2-3.59.46-3.76,2.16-.23,2.19-1.25,4.23-2.34,6.1-1.03,1.78-2.13,3.57-3.66,4.97-1.28,1.17-2.41,1.47-4.06,1.11-.78-.17-1.54-.42-2.29-.7-.14-.05-.27-.1-.4-.16.33.14.38.16.17.07-.61-.26-1.12-.39-1.77-.28-.99.18-1.48.8-2.21,1.39-.66.55-1.41.89-2.23,1.11-2.03.55-4.22.56-6.25.02-3.68-.99-6.43-3.85-7.12-7.6-.24-1.33-1.86-2.08-3.08-1.75l-1.47.41,1.93.25c.14.1-.07-.09-.04-.06-.07-.08-.14-.22-.17-.31.02.05.12.31.03.03s-.16-.56-.21-.84c-.02-.12-.04-.25-.06-.37-.07-.42.04.34-.01-.08-.18-1.31-.25-2.67-.95-3.84-1.61-2.7-5.01-1.65-7.14-2.82-1.8-.99-2.97-2.8-3.58-4.72-.17-.52-.3-1.04-.42-1.57-.05-.24-.09-.47-.14-.71-.02-.12-.04-.23-.06-.35.07.49,0-.03,0-.13-.09-1.12-.14-2.22.13-3.32.73-2.9,3.07-5.65,6.22-5.62,1.13.01,2.08-.79,2.41-1.84.39-1.23,1.14-2.72.85-4.03-.45-2.07-.29-3.73.93-5.55,2.75-4.1,8.38-4.3,12.79-3.73,1.34.17,2.5-1.27,2.5-2.5,0-1.5-1.15-2.33-2.5-2.5h0Z"/>
      </g>
      <g>
        <path class="cls-13" d="M485.32,1227.45c-1.99,4.55-1.73,11.65-1.82,15.54.08,1.17.94,2.64,2.01,3.08.89.44,1.69.53,2.78.54,2.4.01,4.65-1.31,5.68-3.47.56-1.19.9-2.48,1.26-3.64.36-1.66.97-4.21,1.22-6.81-3.45-2.46-7.13-4.52-11.13-5.22Z"/>
        <path class="cls-11" d="M493.58,1252.33c-.62.06-1.05.64-.92,1.25.15.71.46,1.59,1.11,2.41,1.48,1.86,3.71,2.17,4.88,2.19.44,0,.87-.18,1.14-.53,1.88-2.39,4.6-4.26,7.66-5.82.47-.24.25-.95-.27-.89-4.54.46-9.07.93-13.61,1.39Z"/>
        <path class="cls-20" d="M492.79,1236.78c.27,2.49-2.98,3.69-3.62.94-.45-1.33.57-2.88,1.92-2.99.83.41,1.87.98,1.7,2.04Z"/>
      </g>
      <g>
        <path class="cls-13" d="M512.45,1228.42c1.99,4.55,1.73,11.65,1.82,15.54-.08,1.17-.94,2.64-2.01,3.08-1.13.56-2.31.68-3.44.31-.51-.17-1.05-.24-1.58-.33-2.73-.49-3.97-4.19-4.7-6.55-.36-1.66-.97-4.21-1.22-6.81,3.45-2.46,7.13-4.52,11.13-5.22Z"/>
        <path class="cls-20" d="M504.98,1237.75c-.27,2.49,2.98,3.69,3.62.94.45-1.33-.57-2.88-1.92-2.99-.83.41-1.87.98-1.7,2.04Z"/>
      </g>
    </g>
    <g>
      <g>
        <path class="cls-20" d="M614.36,1302.33c-4.05-.55-8.41-.27-11.86,1.92-3.45,2.19-5.65,6.68-4.27,10.52l-.85,2.7c-4.94-.17-8.94,4.91-8.94,9.85,0,4.45,2.09,12.32,10.14,12.32,3.41,0,1.07,5.38,3.95,7.2l1.47-.41c.58,3.5,2.98,6.59,6.11,8.27,3.13,1.67,6.91,1.97,10.34,1.07,1.43-.38,2.28-.89,3.43-1.83.15-.13.49-.51.68-.62.06-.03.12-.05.18-.02.84.37,4.69,1.96,7.03.97,2.65-1.11,4.44-3.59,5.95-6.03,1.62-2.62,3.1-5.44,3.36-8.5l1.94,1.36c1.49,1.42,4.16.54,5.25-1.2,1.09-1.74,1.05-3.94.93-5.99-.13-2.19-.41-4.58-1.98-6.1-2.02-1.95-5.23-1.65-8-1.23l2.55-3.3c1.68-2.28,1.64-5.67-.09-7.91-1.73-2.24-5-3.13-7.63-2.07l.34-.28c.36-3.47.62-7.31-1.49-10.09-2.36-3.11-6.85-3.67-10.72-3.12-2.51.36-5.06,1.13-6.94,2.83-1.88,1.7-2.93,4.51-2,6.87"/>
        <path class="cls-17" d="M614.36,1299.83c-4.92-.64-10.25-.06-14.26,3.09-3.68,2.88-5.79,7.95-4.28,12.52v-1.33c-.28.9-.57,1.8-.85,2.7l2.41-1.84c-4.38-.04-8.24,2.85-10.08,6.72-1.55,3.25-1.62,6.77-.78,10.22.78,3.21,2.47,6.17,5.15,8.14,1.43,1.05,3.14,1.68,4.89,1.93.56.08,1.11.14,1.67.16-.11,0,.59.03.6.02-.06.07-.4-.06-.46-.11-.19-.14-.22-.25-.37-.39.24.23.05.11,0-.08.08.35.19.7.26,1.06.01.08.07.48,0,.05.03.21.05.41.08.62.07.51.13,1.03.23,1.53.18.88.5,1.76,1,2.51.82,1.22,2.08,2.23,3.63,1.91.5-.1.98-.27,1.47-.41l-3.08-1.75c.96,5.2,5.05,9.33,10,10.92,2.74.87,5.68.93,8.48.4,1.25-.24,2.5-.63,3.6-1.27.98-.57,1.76-1.36,2.64-2.06l-1.77.73.18-.02-1.26-.34c1.84.8,3.72,1.42,5.73,1.6,2.67.23,4.98-.94,6.91-2.7s3.3-3.98,4.55-6.18c1.52-2.64,2.6-5.39,2.91-8.44l-3.76,2.16c.63.44,1.26.87,1.88,1.32-.58-.42.27.24.54.4.35.2.74.38,1.13.48.91.25,1.87.26,2.79.06,3.87-.81,5.51-4.56,5.6-8.17.08-3.37-.23-7.45-2.77-9.95-2.79-2.75-6.89-2.4-10.43-1.87l2.82,3.67c2.13-2.77,4.39-5.29,4.09-9.08-.46-5.85-6.48-9.93-12.09-7.87l2.43,4.18c1.47-1.2,1.3-3.8,1.32-5.59.02-2.12-.26-4.23-1.13-6.17-1.68-3.76-5.39-5.61-9.31-6.07s-8.19.25-11.45,2.29c-3.5,2.2-5.86,6.52-4.42,10.65.45,1.27,1.71,2.12,3.08,1.75,1.24-.34,2.19-1.8,1.75-3.08-.82-2.34.8-4.33,2.81-5.39,2.21-1.17,5.05-1.47,7.51-1.28,2.13.16,4.35,1.01,5.39,2.99,1.22,2.34.78,5.35.53,7.86l.73-1.77-.34.28c-1.91,1.57.14,5.02,2.43,4.18,3.09-1.13,6.4,1.13,5.7,4.58-.38,1.86-2.23,3.57-3.35,5.03-.59.77-.35,2.09.2,2.78.68.85,1.59,1.05,2.63.9,1.66-.25,4.2-.68,5.57.59,1.44,1.33,1.31,4.22,1.31,6,0,.99-.02,2.23-.65,3.07-.15.2-.4.42-.71.55,0,0-.8.14-.46.14.17,0-.36-.16-.18-.03.22.16-.31-.23-.49-.37-.16-.12-.33-.23-.49-.35l-1.44-1.01c-1.71-1.2-3.59.46-3.76,2.16-.23,2.19-1.25,4.23-2.34,6.1-1.03,1.78-2.13,3.57-3.66,4.97-1.28,1.17-2.41,1.47-4.06,1.11-.78-.17-1.54-.42-2.29-.7-.14-.05-.27-.1-.4-.16.33.14.38.16.17.07-.61-.26-1.12-.39-1.77-.28-.99.18-1.48.8-2.21,1.39-.66.55-1.41.89-2.23,1.11-2.03.55-4.22.56-6.25.02-3.68-.99-6.43-3.85-7.12-7.6-.24-1.33-1.86-2.08-3.08-1.75l-1.47.41,1.93.25c.14.1-.07-.09-.04-.06-.07-.08-.14-.22-.17-.31.02.05.12.31.03.03s-.16-.56-.21-.84c-.02-.12-.04-.25-.06-.37-.07-.42.04.34-.01-.08-.18-1.31-.25-2.67-.95-3.84-1.61-2.7-5.01-1.65-7.14-2.82-1.8-.99-2.97-2.8-3.58-4.72-.17-.52-.3-1.04-.42-1.57-.05-.24-.09-.47-.14-.71-.02-.12-.04-.23-.06-.35.07.49,0-.03,0-.13-.09-1.12-.14-2.22.13-3.32.73-2.9,3.07-5.65,6.22-5.62,1.13.01,2.08-.79,2.41-1.84.39-1.23,1.14-2.72.85-4.03-.45-2.07-.29-3.73.93-5.55,2.75-4.1,8.38-4.3,12.79-3.73,1.34.17,2.5-1.27,2.5-2.5,0-1.5-1.15-2.33-2.5-2.5h0Z"/>
      </g>
      <g>
        <path class="cls-13" d="M604.08,1316.62c-1.99,4.55-1.73,11.65-1.82,15.54.08,1.17.94,2.64,2.01,3.08.89.44,1.69.53,2.78.54,2.4.01,4.65-1.31,5.68-3.47.56-1.19.9-2.48,1.26-3.64.36-1.66.97-4.21,1.22-6.81-3.45-2.46-7.13-4.52-11.13-5.22Z"/>
        <path class="cls-11" d="M612.34,1341.5c-.62.06-1.05.64-.92,1.25.15.71.46,1.59,1.11,2.41,1.48,1.86,3.71,2.17,4.88,2.19.44,0,.87-.18,1.14-.53,1.88-2.39,4.6-4.26,7.66-5.82.47-.24.25-.95-.27-.89-4.54.46-9.07.93-13.61,1.39Z"/>
        <path class="cls-20" d="M611.55,1325.95c.27,2.49-2.98,3.69-3.62.94-.45-1.33.57-2.88,1.92-2.99.83.41,1.87.98,1.7,2.04Z"/>
      </g>
      <g>
        <path class="cls-13" d="M631.21,1317.59c1.99,4.55,1.73,11.65,1.82,15.54-.08,1.17-.94,2.64-2.01,3.08-1.13.56-2.31.68-3.44.31-.51-.17-1.05-.24-1.58-.33-2.73-.49-3.97-4.19-4.7-6.55-.36-1.66-.97-4.21-1.22-6.81,3.45-2.46,7.13-4.52,11.13-5.22Z"/>
        <path class="cls-20" d="M623.74,1326.92c-.27,2.49,2.98,3.69,3.62.94.45-1.33-.57-2.88-1.92-2.99-.83.41-1.87.98-1.7,2.04Z"/>
      </g>
    </g>
    <g>
      <g>
        <path class="cls-20" d="M231.78,1256.69c-4.05-.55-8.41-.27-11.86,1.92-3.45,2.19-5.65,6.68-4.27,10.52l-.85,2.7c-4.94-.17-8.94,4.91-8.94,9.85,0,4.45,2.09,12.32,10.14,12.32,3.41,0,1.07,5.38,3.95,7.2l1.47-.41c.58,3.5,2.98,6.59,6.11,8.27,3.13,1.67,6.91,1.97,10.34,1.07,1.43-.38,2.28-.89,3.43-1.83.15-.13.49-.51.68-.62.06-.03.12-.05.18-.02.84.37,4.69,1.96,7.03.97,2.65-1.11,4.44-3.59,5.95-6.03,1.62-2.62,3.1-5.44,3.36-8.5l1.94,1.36c1.49,1.42,4.16.54,5.25-1.2s1.05-3.94.93-5.99c-.13-2.19-.41-4.58-1.98-6.1-2.02-1.95-5.23-1.65-8-1.23l2.55-3.3c1.68-2.28,1.64-5.67-.09-7.91-1.73-2.24-5-3.13-7.63-2.07l.34-.28c.36-3.47.62-7.31-1.49-10.09-2.36-3.11-6.85-3.67-10.72-3.12-2.51.36-5.06,1.13-6.94,2.83-1.88,1.7-2.93,4.51-2,6.87"/>
        <path class="cls-17" d="M231.78,1254.19c-4.92-.64-10.25-.06-14.26,3.09-3.68,2.88-5.79,7.95-4.28,12.52v-1.33c-.28.9-.57,1.8-.85,2.7l2.41-1.84c-4.38-.04-8.24,2.85-10.08,6.72-1.55,3.25-1.62,6.77-.78,10.22.78,3.21,2.47,6.17,5.15,8.14,1.43,1.05,3.14,1.68,4.89,1.93.56.08,1.11.14,1.67.16-.11,0,.59.03.6.02-.06.07-.4-.06-.46-.11-.19-.14-.22-.25-.37-.39.24.23.05.11,0-.08.08.35.19.7.26,1.06.01.08.07.48,0,.05.03.21.05.41.08.62.07.51.13,1.03.23,1.53.18.88.5,1.76,1,2.51.82,1.22,2.08,2.23,3.63,1.91.5-.1.98-.27,1.47-.41l-3.08-1.75c.96,5.2,5.05,9.33,10,10.92,2.74.87,5.68.93,8.48.4,1.25-.24,2.5-.63,3.6-1.27.98-.57,1.76-1.36,2.64-2.06l-1.77.73.18-.02-1.26-.34c1.84.8,3.72,1.42,5.73,1.6,2.67.23,4.98-.94,6.91-2.7s3.3-3.98,4.55-6.18c1.52-2.64,2.6-5.39,2.91-8.44l-3.76,2.16c.63.44,1.26.87,1.88,1.32-.58-.42.27.24.54.4.35.2.74.38,1.13.48.91.25,1.87.26,2.79.06,3.87-.81,5.51-4.56,5.6-8.17.08-3.37-.23-7.45-2.77-9.95-2.79-2.75-6.89-2.4-10.43-1.87l2.82,3.67c2.13-2.77,4.39-5.29,4.09-9.08-.46-5.85-6.48-9.93-12.09-7.87l2.43,4.18c1.47-1.2,1.3-3.8,1.32-5.59.02-2.12-.26-4.23-1.13-6.17-1.68-3.76-5.39-5.61-9.31-6.07s-8.19.25-11.45,2.29c-3.5,2.2-5.86,6.52-4.42,10.65.45,1.27,1.71,2.12,3.08,1.75,1.24-.34,2.19-1.8,1.75-3.08-.82-2.34.8-4.33,2.81-5.39,2.21-1.17,5.05-1.47,7.51-1.28,2.13.16,4.35,1.01,5.39,2.99,1.22,2.34.78,5.35.53,7.86l.73-1.77-.34.28c-1.91,1.57.14,5.02,2.43,4.18,3.09-1.13,6.4,1.13,5.7,4.58-.38,1.86-2.23,3.57-3.35,5.03-.59.77-.35,2.09.2,2.78.68.85,1.59,1.05,2.63.9,1.66-.25,4.2-.68,5.57.59,1.44,1.33,1.31,4.22,1.31,6,0,.99-.02,2.23-.65,3.07-.15.2-.4.42-.71.55,0,0-.8.14-.46.14.17,0-.36-.16-.18-.03.22.16-.31-.23-.49-.37-.16-.12-.33-.23-.49-.35l-1.44-1.01c-1.71-1.2-3.59.46-3.76,2.16-.23,2.19-1.25,4.23-2.34,6.1-1.03,1.78-2.13,3.57-3.66,4.97-1.28,1.17-2.41,1.47-4.06,1.11-.78-.17-1.54-.42-2.29-.7-.14-.05-.27-.1-.4-.16.33.14.38.16.17.07-.61-.26-1.12-.39-1.77-.28-.99.18-1.48.8-2.21,1.39-.66.55-1.41.89-2.23,1.11-2.03.55-4.22.56-6.25.02-3.68-.99-6.43-3.85-7.12-7.6-.24-1.33-1.86-2.08-3.08-1.75l-1.47.41,1.93.25c.14.1-.07-.09-.04-.06-.07-.08-.14-.22-.17-.31.02.05.12.31.03.03s-.16-.56-.21-.84c-.02-.12-.04-.25-.06-.37-.07-.42.04.34-.01-.08-.18-1.31-.25-2.67-.95-3.84-1.61-2.7-5.01-1.65-7.14-2.82-1.8-.99-2.97-2.8-3.58-4.72-.17-.52-.3-1.04-.42-1.57-.05-.24-.09-.47-.14-.71-.02-.12-.04-.23-.06-.35.07.49,0-.03,0-.13-.09-1.12-.14-2.22.13-3.32.73-2.9,3.07-5.65,6.22-5.62,1.13.01,2.08-.79,2.41-1.84.39-1.23,1.14-2.72.85-4.03-.45-2.07-.29-3.73.93-5.55,2.75-4.1,8.38-4.3,12.79-3.73,1.34.17,2.5-1.27,2.5-2.5,0-1.5-1.15-2.33-2.5-2.5h0Z"/>
      </g>
      <g>
        <path class="cls-13" d="M221.5,1270.98c-1.99,4.55-1.73,11.65-1.82,15.54.08,1.17.94,2.64,2.01,3.08.89.44,1.69.53,2.78.54,2.4.01,4.65-1.31,5.68-3.47.56-1.19.9-2.48,1.26-3.64.36-1.66.97-4.21,1.22-6.81-3.45-2.46-7.13-4.52-11.13-5.22Z"/>
        <path class="cls-11" d="M229.76,1295.86c-.62.06-1.05.64-.92,1.25.15.71.46,1.59,1.11,2.41,1.48,1.86,3.71,2.17,4.88,2.19.44,0,.87-.18,1.14-.53,1.88-2.39,4.6-4.26,7.66-5.82.47-.24.25-.95-.27-.89-4.54.46-9.07.93-13.61,1.39Z"/>
        <path class="cls-20" d="M228.97,1280.32c.27,2.49-2.98,3.69-3.62.94-.45-1.33.57-2.88,1.92-2.99.83.41,1.87.98,1.7,2.04Z"/>
      </g>
      <g>
        <path class="cls-13" d="M248.63,1271.95c1.99,4.55,1.73,11.65,1.82,15.54-.08,1.17-.94,2.64-2.01,3.08-1.13.56-2.31.68-3.44.31-.51-.17-1.05-.24-1.58-.33-2.73-.49-3.97-4.19-4.7-6.55-.36-1.66-.97-4.21-1.22-6.81,3.45-2.46,7.13-4.52,11.13-5.22Z"/>
        <path class="cls-20" d="M241.16,1281.29c-.27,2.49,2.98,3.69,3.62.94.45-1.33-.57-2.88-1.92-2.99-.83.41-1.87.98-1.7,2.04Z"/>
      </g>
    </g>
    <g>
      <g>
        <path class="cls-20" d="M646,1168.95c-4.05-.55-8.41-.27-11.86,1.92-3.45,2.19-5.65,6.68-4.27,10.52l-.85,2.7c-4.94-.17-8.94,4.91-8.94,9.85,0,4.45,2.09,12.32,10.14,12.32,3.41,0,1.07,5.38,3.95,7.2l1.47-.41c.58,3.5,2.98,6.59,6.11,8.27s6.91,1.97,10.34,1.07c1.43-.38,2.28-.89,3.43-1.83.15-.13.49-.51.68-.62.06-.03.12-.05.18-.02.84.37,4.69,1.96,7.03.97,2.65-1.11,4.44-3.59,5.95-6.03,1.62-2.62,3.1-5.44,3.36-8.5l1.94,1.36c1.49,1.42,4.16.54,5.25-1.2s1.05-3.94.93-5.99c-.13-2.19-.41-4.58-1.98-6.1-2.02-1.95-5.23-1.65-8-1.23l2.55-3.3c1.68-2.28,1.64-5.67-.09-7.91s-5-3.13-7.63-2.07l.34-.28c.36-3.47.62-7.31-1.49-10.09-2.36-3.11-6.85-3.67-10.72-3.12-2.51.36-5.06,1.13-6.94,2.83s-2.93,4.51-2,6.87"/>
        <path class="cls-17" d="M646,1166.45c-4.92-.64-10.25-.06-14.26,3.09-3.68,2.88-5.79,7.95-4.28,12.52v-1.33c-.28.9-.57,1.8-.85,2.7l2.41-1.84c-4.38-.04-8.24,2.85-10.08,6.72-1.55,3.25-1.62,6.77-.78,10.22.78,3.21,2.47,6.17,5.15,8.14,1.43,1.05,3.14,1.68,4.89,1.93.56.08,1.11.14,1.67.16-.11,0,.59.03.6.02-.06.07-.4-.06-.46-.11-.19-.14-.22-.25-.37-.39.24.23.05.11,0-.08.08.35.19.7.26,1.06.01.08.07.48,0,.05.03.21.05.41.08.62.07.51.13,1.03.23,1.53.18.88.5,1.76,1,2.51.82,1.22,2.08,2.23,3.63,1.91.5-.1.98-.27,1.47-.41l-3.08-1.75c.96,5.2,5.05,9.33,10,10.92,2.74.87,5.68.93,8.48.4,1.25-.24,2.5-.63,3.6-1.27.98-.57,1.76-1.36,2.64-2.06l-1.77.73.18-.02-1.26-.34c1.84.8,3.72,1.42,5.73,1.6,2.67.23,4.98-.94,6.91-2.7s3.3-3.98,4.55-6.18c1.52-2.64,2.6-5.39,2.91-8.44l-3.76,2.16c.63.44,1.26.87,1.88,1.32-.58-.42.27.24.54.4.35.2.74.38,1.13.48.91.25,1.87.26,2.79.06,3.87-.81,5.51-4.56,5.6-8.17.08-3.37-.23-7.45-2.77-9.95-2.79-2.75-6.89-2.4-10.43-1.87l2.82,3.67c2.13-2.77,4.39-5.29,4.09-9.08-.46-5.85-6.48-9.93-12.09-7.87l2.43,4.18c1.47-1.2,1.3-3.8,1.32-5.59.02-2.12-.26-4.23-1.13-6.17-1.68-3.76-5.39-5.61-9.31-6.07s-8.19.25-11.45,2.29c-3.5,2.2-5.86,6.52-4.42,10.65.45,1.27,1.71,2.12,3.08,1.75,1.24-.34,2.19-1.8,1.75-3.08-.82-2.34.8-4.33,2.81-5.39,2.21-1.17,5.05-1.47,7.51-1.28,2.13.16,4.35,1.01,5.39,2.99,1.22,2.34.78,5.35.53,7.86l.73-1.77-.34.28c-1.91,1.57.14,5.02,2.43,4.18,3.09-1.13,6.4,1.13,5.7,4.58-.38,1.86-2.23,3.57-3.35,5.03-.59.77-.35,2.09.2,2.78.68.85,1.59,1.05,2.63.9,1.66-.25,4.2-.68,5.57.59,1.44,1.33,1.31,4.22,1.31,6,0,.99-.02,2.23-.65,3.07-.15.2-.4.42-.71.55,0,0-.8.14-.46.14.17,0-.36-.16-.18-.03.22.16-.31-.23-.49-.37-.16-.12-.33-.23-.49-.35l-1.44-1.01c-1.71-1.2-3.59.46-3.76,2.16-.23,2.19-1.25,4.23-2.34,6.1-1.03,1.78-2.13,3.57-3.66,4.97-1.28,1.17-2.41,1.47-4.06,1.11-.78-.17-1.54-.42-2.29-.7-.14-.05-.27-.1-.4-.16.33.14.38.16.17.07-.61-.26-1.12-.39-1.77-.28-.99.18-1.48.8-2.21,1.39-.66.55-1.41.89-2.23,1.11-2.03.55-4.22.56-6.25.02-3.68-.99-6.43-3.85-7.12-7.6-.24-1.33-1.86-2.08-3.08-1.75l-1.47.41,1.93.25c.14.1-.07-.09-.04-.06-.07-.08-.14-.22-.17-.31.02.05.12.31.03.03s-.16-.56-.21-.84c-.02-.12-.04-.25-.06-.37-.07-.42.04.34-.01-.08-.18-1.31-.25-2.67-.95-3.84-1.61-2.7-5.01-1.65-7.14-2.82-1.8-.99-2.97-2.8-3.58-4.72-.17-.52-.3-1.04-.42-1.57-.05-.24-.09-.47-.14-.71-.02-.12-.04-.23-.06-.35.07.49,0-.03,0-.13-.09-1.12-.14-2.22.13-3.32.73-2.9,3.07-5.65,6.22-5.62,1.13.01,2.08-.79,2.41-1.84.39-1.23,1.14-2.72.85-4.03-.45-2.07-.29-3.73.93-5.55,2.75-4.1,8.38-4.3,12.79-3.73,1.34.17,2.5-1.27,2.5-2.5,0-1.5-1.15-2.33-2.5-2.5h0Z"/>
      </g>
      <g>
        <path class="cls-13" d="M635.72,1183.24c-1.99,4.55-1.73,11.65-1.82,15.54.08,1.17.94,2.64,2.01,3.08.89.44,1.69.53,2.78.54,2.4.01,4.65-1.31,5.68-3.47.56-1.19.9-2.48,1.26-3.64.36-1.66.97-4.21,1.22-6.81-3.45-2.46-7.13-4.52-11.13-5.22Z"/>
        <path class="cls-11" d="M643.98,1208.12c-.62.06-1.05.64-.92,1.25.15.71.46,1.59,1.11,2.41,1.48,1.86,3.71,2.17,4.88,2.19.44,0,.87-.18,1.14-.53,1.88-2.39,4.6-4.26,7.66-5.82.47-.24.25-.95-.27-.89-4.54.46-9.07.93-13.61,1.39Z"/>
        <path class="cls-20" d="M643.19,1192.58c.27,2.49-2.98,3.69-3.62.94-.45-1.33.57-2.88,1.92-2.99.83.41,1.87.98,1.7,2.04Z"/>
      </g>
      <g>
        <path class="cls-13" d="M662.85,1184.21c1.99,4.55,1.73,11.65,1.82,15.54-.08,1.17-.94,2.64-2.01,3.08-1.13.56-2.31.68-3.44.31-.51-.17-1.05-.24-1.58-.33-2.73-.49-3.97-4.19-4.7-6.55-.36-1.66-.97-4.21-1.22-6.81,3.45-2.46,7.13-4.52,11.13-5.22Z"/>
        <path class="cls-20" d="M655.38,1193.55c-.27,2.49,2.98,3.69,3.62.94.45-1.33-.57-2.88-1.92-2.99-.83.41-1.87.98-1.7,2.04Z"/>
      </g>
    </g>
    <g>
      <g>
        <path class="cls-20" d="M783.39,1112.3c-4.05-.55-8.41-.27-11.86,1.92-3.45,2.19-5.65,6.68-4.27,10.52l-.85,2.7c-4.94-.17-8.94,4.91-8.94,9.85,0,4.45,2.09,12.32,10.14,12.32,3.41,0,1.07,5.38,3.95,7.2l1.47-.41c.58,3.5,2.98,6.59,6.11,8.27,3.13,1.67,6.91,1.97,10.34,1.07,1.43-.38,2.28-.89,3.43-1.83.15-.13.49-.51.68-.62.06-.03.12-.05.18-.02.84.37,4.69,1.96,7.03.97,2.65-1.11,4.44-3.59,5.95-6.03,1.62-2.62,3.1-5.44,3.36-8.5l1.94,1.36c1.49,1.42,4.16.54,5.25-1.2,1.09-1.74,1.05-3.94.93-5.99-.13-2.19-.41-4.58-1.98-6.1-2.02-1.95-5.23-1.65-8-1.23l2.55-3.3c1.68-2.28,1.64-5.67-.09-7.91-1.73-2.24-5-3.13-7.63-2.07l.34-.28c.36-3.47.62-7.31-1.49-10.09-2.36-3.11-6.85-3.67-10.72-3.12-2.51.36-5.06,1.13-6.94,2.83-1.88,1.7-2.93,4.51-2,6.87"/>
        <path class="cls-17" d="M783.39,1109.8c-4.92-.64-10.25-.06-14.26,3.09-3.68,2.88-5.79,7.95-4.28,12.52v-1.33c-.28.9-.57,1.8-.85,2.7l2.41-1.84c-4.38-.04-8.24,2.85-10.08,6.72-1.55,3.25-1.62,6.77-.78,10.22.78,3.21,2.47,6.17,5.15,8.14,1.43,1.05,3.14,1.68,4.89,1.93.56.08,1.11.14,1.67.16-.11,0,.59.03.6.02-.06.07-.4-.06-.46-.11-.19-.14-.22-.25-.37-.39.24.23.05.11,0-.08.08.35.19.7.26,1.06.01.08.07.48,0,.05.03.21.05.41.08.62.07.51.13,1.03.23,1.53.18.88.5,1.76,1,2.51.82,1.22,2.08,2.23,3.63,1.91.5-.1.98-.27,1.47-.41l-3.08-1.75c.96,5.2,5.05,9.33,10,10.92,2.74.87,5.68.93,8.48.4,1.25-.24,2.5-.63,3.6-1.27.98-.57,1.76-1.36,2.64-2.06l-1.77.73.18-.02-1.26-.34c1.84.8,3.72,1.42,5.73,1.6,2.67.23,4.98-.94,6.91-2.7s3.3-3.98,4.55-6.18c1.52-2.64,2.6-5.39,2.91-8.44l-3.76,2.16c.63.44,1.26.87,1.88,1.32-.58-.42.27.24.54.4.35.2.74.38,1.13.48.91.25,1.87.26,2.79.06,3.87-.81,5.51-4.56,5.6-8.17.08-3.37-.23-7.45-2.77-9.95-2.79-2.75-6.89-2.4-10.43-1.87l2.82,3.67c2.13-2.77,4.39-5.29,4.09-9.08-.46-5.85-6.48-9.93-12.09-7.87l2.43,4.18c1.47-1.2,1.3-3.8,1.32-5.59.02-2.12-.26-4.23-1.13-6.17-1.68-3.76-5.39-5.61-9.31-6.07s-8.19.25-11.45,2.29c-3.5,2.2-5.86,6.52-4.42,10.65.45,1.27,1.71,2.12,3.08,1.75,1.24-.34,2.19-1.8,1.75-3.08-.82-2.34.8-4.33,2.81-5.39,2.21-1.17,5.05-1.47,7.51-1.28,2.13.16,4.35,1.01,5.39,2.99,1.22,2.34.78,5.35.53,7.86l.73-1.77-.34.28c-1.91,1.57.14,5.02,2.43,4.18,3.09-1.13,6.4,1.13,5.7,4.58-.38,1.86-2.23,3.57-3.35,5.03-.59.77-.35,2.09.2,2.78.68.85,1.59,1.05,2.63.9,1.66-.25,4.2-.68,5.57.59,1.44,1.33,1.31,4.22,1.31,6,0,.99-.02,2.23-.65,3.07-.15.2-.4.42-.71.55,0,0-.8.14-.46.14.17,0-.36-.16-.18-.03.22.16-.31-.23-.49-.37-.16-.12-.33-.23-.49-.35l-1.44-1.01c-1.71-1.2-3.59.46-3.76,2.16-.23,2.19-1.25,4.23-2.34,6.1-1.03,1.78-2.13,3.57-3.66,4.97-1.28,1.17-2.41,1.47-4.06,1.11-.78-.17-1.54-.42-2.29-.7-.14-.05-.27-.1-.4-.16.33.14.38.16.17.07-.61-.26-1.12-.39-1.77-.28-.99.18-1.48.8-2.21,1.39-.66.55-1.41.89-2.23,1.11-2.03.55-4.22.56-6.25.02-3.68-.99-6.43-3.85-7.12-7.6-.24-1.33-1.86-2.08-3.08-1.75l-1.47.41,1.93.25c.14.1-.07-.09-.04-.06-.07-.08-.14-.22-.17-.31.02.05.12.31.03.03s-.16-.56-.21-.84c-.02-.12-.04-.25-.06-.37-.07-.42.04.34-.01-.08-.18-1.31-.25-2.67-.95-3.84-1.61-2.7-5.01-1.65-7.14-2.82-1.8-.99-2.97-2.8-3.58-4.72-.17-.52-.3-1.04-.42-1.57-.05-.24-.09-.47-.14-.71-.02-.12-.04-.23-.06-.35.07.49,0-.03,0-.13-.09-1.12-.14-2.22.13-3.32.73-2.9,3.07-5.65,6.22-5.62,1.13.01,2.08-.79,2.41-1.84.39-1.23,1.14-2.72.85-4.03-.45-2.07-.29-3.73.93-5.55,2.75-4.1,8.38-4.3,12.79-3.73,1.34.17,2.5-1.27,2.5-2.5,0-1.5-1.15-2.33-2.5-2.5h0Z"/>
      </g>
      <g>
        <path class="cls-13" d="M773.11,1126.6c-1.99,4.55-1.73,11.65-1.82,15.54.08,1.17.94,2.64,2.01,3.08.89.44,1.69.53,2.78.54,2.4.01,4.65-1.31,5.68-3.47.56-1.19.9-2.48,1.26-3.64.36-1.66.97-4.21,1.22-6.81-3.45-2.46-7.13-4.52-11.13-5.22Z"/>
        <path class="cls-11" d="M781.37,1151.48c-.62.06-1.05.64-.92,1.25.15.71.46,1.59,1.11,2.41,1.48,1.86,3.71,2.17,4.88,2.19.44,0,.87-.18,1.14-.53,1.88-2.39,4.6-4.26,7.66-5.82.47-.24.25-.95-.27-.89-4.54.46-9.07.93-13.61,1.39Z"/>
        <path class="cls-20" d="M780.58,1135.93c.27,2.49-2.98,3.69-3.62.94-.45-1.33.57-2.88,1.92-2.99.83.41,1.87.98,1.7,2.04Z"/>
      </g>
      <g>
        <path class="cls-13" d="M800.24,1127.57c1.99,4.55,1.73,11.65,1.82,15.54-.08,1.17-.94,2.64-2.01,3.08-1.13.56-2.31.68-3.44.31-.51-.17-1.05-.24-1.58-.33-2.73-.49-3.97-4.19-4.7-6.55-.36-1.66-.97-4.21-1.22-6.81,3.45-2.46,7.13-4.52,11.13-5.22Z"/>
        <path class="cls-20" d="M792.77,1136.9c-.27,2.49,2.98,3.69,3.62.94.45-1.33-.57-2.88-1.92-2.99-.83.41-1.87.98-1.7,2.04Z"/>
      </g>
    </g>
    <g>
      <g>
        <path class="cls-20" d="M1277.52,1109.24c-4.05-.55-8.41-.27-11.86,1.92-3.45,2.19-5.65,6.68-4.27,10.52l-.85,2.7c-4.94-.17-8.94,4.91-8.94,9.85,0,4.45,2.09,12.32,10.14,12.32,3.41,0,1.07,5.38,3.95,7.2l1.47-.41c.58,3.5,2.98,6.59,6.11,8.27,3.13,1.67,6.91,1.97,10.34,1.07,1.43-.38,2.28-.89,3.43-1.83.15-.13.49-.51.68-.62.06-.03.12-.05.18-.02.84.37,4.69,1.96,7.03.97,2.65-1.11,4.44-3.59,5.95-6.03,1.62-2.62,3.1-5.44,3.36-8.5l1.94,1.36c1.49,1.42,4.16.54,5.25-1.2,1.09-1.74,1.05-3.94.93-5.99-.13-2.19-.41-4.58-1.98-6.1-2.02-1.95-5.23-1.65-8-1.23l2.55-3.3c1.68-2.28,1.64-5.67-.09-7.91s-5-3.13-7.63-2.07l.34-.28c.36-3.47.62-7.31-1.49-10.09-2.36-3.11-6.85-3.67-10.72-3.12-2.51.36-5.06,1.13-6.94,2.83-1.88,1.7-2.93,4.51-2,6.87"/>
        <path class="cls-17" d="M1277.52,1106.74c-4.92-.64-10.25-.06-14.26,3.09-3.68,2.88-5.79,7.95-4.28,12.52v-1.33c-.28.9-.57,1.8-.85,2.7l2.41-1.84c-4.38-.04-8.24,2.85-10.08,6.72-1.55,3.25-1.62,6.77-.78,10.22.78,3.21,2.47,6.17,5.15,8.14,1.43,1.05,3.14,1.68,4.89,1.93.56.08,1.11.14,1.67.16-.11,0,.59.03.6.02-.06.07-.4-.06-.46-.11-.19-.14-.22-.25-.37-.39.24.23.05.11,0-.08.08.35.19.7.26,1.06.01.08.07.48,0,.05.03.21.05.41.08.62.07.51.13,1.03.23,1.53.18.88.5,1.76,1,2.51.82,1.22,2.08,2.23,3.63,1.91.5-.1.98-.27,1.47-.41l-3.08-1.75c.96,5.2,5.05,9.33,10,10.92,2.74.87,5.68.93,8.48.4,1.25-.24,2.5-.63,3.6-1.27.98-.57,1.76-1.36,2.64-2.06l-1.77.73.18-.02-1.26-.34c1.84.8,3.72,1.42,5.73,1.6,2.67.23,4.98-.94,6.91-2.7s3.3-3.98,4.55-6.18c1.52-2.64,2.6-5.39,2.91-8.44l-3.76,2.16c.63.44,1.26.87,1.88,1.32-.58-.42.27.24.54.4.35.2.74.38,1.13.48.91.25,1.87.26,2.79.06,3.87-.81,5.51-4.56,5.6-8.17.08-3.37-.23-7.45-2.77-9.95-2.79-2.75-6.89-2.4-10.43-1.87l2.82,3.67c2.13-2.77,4.39-5.29,4.09-9.08-.46-5.85-6.48-9.93-12.09-7.87l2.43,4.18c1.47-1.2,1.3-3.8,1.32-5.59.02-2.12-.26-4.23-1.13-6.17-1.68-3.76-5.39-5.61-9.31-6.07s-8.19.25-11.45,2.29c-3.5,2.2-5.86,6.52-4.42,10.65.45,1.27,1.71,2.12,3.08,1.75,1.24-.34,2.19-1.8,1.75-3.08-.82-2.34.8-4.33,2.81-5.39,2.21-1.17,5.05-1.47,7.51-1.28,2.13.16,4.35,1.01,5.39,2.99,1.22,2.34.78,5.35.53,7.86l.73-1.77-.34.28c-1.91,1.57.14,5.02,2.43,4.18,3.09-1.13,6.4,1.13,5.7,4.58-.38,1.86-2.23,3.57-3.35,5.03-.59.77-.35,2.09.2,2.78.68.85,1.59,1.05,2.63.9,1.66-.25,4.2-.68,5.57.59,1.44,1.33,1.31,4.22,1.31,6,0,.99-.02,2.23-.65,3.07-.15.2-.4.42-.71.55,0,0-.8.14-.46.14.17,0-.36-.16-.18-.03.22.16-.31-.23-.49-.37-.16-.12-.33-.23-.49-.35l-1.44-1.01c-1.71-1.2-3.59.46-3.76,2.16-.23,2.19-1.25,4.23-2.34,6.1-1.03,1.78-2.13,3.57-3.66,4.97-1.28,1.17-2.41,1.47-4.06,1.11-.78-.17-1.54-.42-2.29-.7-.14-.05-.27-.1-.4-.16.33.14.38.16.17.07-.61-.26-1.12-.39-1.77-.28-.99.18-1.48.8-2.21,1.39-.66.55-1.41.89-2.23,1.11-2.03.55-4.22.56-6.25.02-3.68-.99-6.43-3.85-7.12-7.6-.24-1.33-1.86-2.08-3.08-1.75l-1.47.41,1.93.25c.14.1-.07-.09-.04-.06-.07-.08-.14-.22-.17-.31.02.05.12.31.03.03s-.16-.56-.21-.84c-.02-.12-.04-.25-.06-.37-.07-.42.04.34-.01-.08-.18-1.31-.25-2.67-.95-3.84-1.61-2.7-5.01-1.65-7.14-2.82-1.8-.99-2.97-2.8-3.58-4.72-.17-.52-.3-1.04-.42-1.57-.05-.24-.09-.47-.14-.71-.02-.12-.04-.23-.06-.35.07.49,0-.03,0-.13-.09-1.12-.14-2.22.13-3.32.73-2.9,3.07-5.65,6.22-5.62,1.13.01,2.08-.79,2.41-1.84.39-1.23,1.14-2.72.85-4.03-.45-2.07-.29-3.73.93-5.55,2.75-4.1,8.38-4.3,12.79-3.73,1.34.17,2.5-1.27,2.5-2.5,0-1.5-1.15-2.33-2.5-2.5h0Z"/>
      </g>
      <g>
        <path class="cls-13" d="M1267.24,1123.54c-1.99,4.55-1.73,11.65-1.82,15.54.08,1.17.94,2.64,2.01,3.08.89.44,1.69.53,2.78.54,2.4.01,4.65-1.31,5.68-3.47.56-1.19.9-2.48,1.26-3.64.36-1.66.97-4.21,1.22-6.81-3.45-2.46-7.13-4.52-11.13-5.22Z"/>
        <path class="cls-11" d="M1275.5,1148.41c-.62.06-1.05.64-.92,1.25.15.71.46,1.59,1.11,2.41,1.48,1.86,3.71,2.17,4.88,2.19.44,0,.87-.18,1.14-.53,1.88-2.39,4.6-4.26,7.66-5.82.47-.24.25-.95-.27-.89-4.54.46-9.07.93-13.61,1.39Z"/>
        <path class="cls-20" d="M1274.71,1132.87c.27,2.49-2.98,3.69-3.62.94-.45-1.33.57-2.88,1.92-2.99.83.41,1.87.98,1.7,2.04Z"/>
      </g>
      <g>
        <path class="cls-13" d="M1294.37,1124.5c1.99,4.55,1.73,11.65,1.82,15.54-.08,1.17-.94,2.64-2.01,3.08-1.13.56-2.31.68-3.44.31-.51-.17-1.05-.24-1.58-.33-2.73-.49-3.97-4.19-4.7-6.55-.36-1.66-.97-4.21-1.22-6.81,3.45-2.46,7.13-4.52,11.13-5.22Z"/>
        <path class="cls-20" d="M1286.9,1133.84c-.27,2.49,2.98,3.69,3.62.94.45-1.33-.57-2.88-1.92-2.99-.83.41-1.87.98-1.7,2.04Z"/>
      </g>
    </g>
    <g>
      <g>
        <path class="cls-20" d="M1408.98,1043.41c-4.05-.55-8.41-.27-11.86,1.92-3.45,2.19-5.65,6.68-4.27,10.52l-.85,2.7c-4.94-.17-8.94,4.91-8.94,9.85,0,4.45,2.09,12.32,10.14,12.32,3.41,0,1.07,5.38,3.95,7.2l1.47-.41c.58,3.5,2.98,6.59,6.11,8.27,3.13,1.67,6.91,1.97,10.34,1.07,1.43-.38,2.28-.89,3.43-1.83.15-.13.49-.51.68-.62.06-.03.12-.05.18-.02.84.37,4.69,1.96,7.03.97,2.65-1.11,4.44-3.59,5.95-6.03,1.62-2.62,3.1-5.44,3.36-8.5l1.94,1.36c1.49,1.42,4.16.54,5.25-1.2,1.09-1.74,1.05-3.94.93-5.99-.13-2.19-.41-4.58-1.98-6.1-2.02-1.95-5.23-1.65-8-1.23l2.55-3.3c1.68-2.28,1.64-5.67-.09-7.91s-5-3.13-7.63-2.07l.34-.28c.36-3.47.62-7.31-1.49-10.09-2.36-3.11-6.85-3.67-10.72-3.12-2.51.36-5.06,1.13-6.94,2.83-1.88,1.7-2.93,4.51-2,6.87"/>
        <path class="cls-17" d="M1408.98,1040.91c-4.92-.64-10.25-.06-14.26,3.09-3.68,2.88-5.79,7.95-4.28,12.52v-1.33c-.28.9-.57,1.8-.85,2.7l2.41-1.84c-4.38-.04-8.24,2.85-10.08,6.72-1.55,3.25-1.62,6.77-.78,10.22.78,3.21,2.47,6.17,5.15,8.14,1.43,1.05,3.14,1.68,4.89,1.93.56.08,1.11.14,1.67.16-.11,0,.59.03.6.02-.06.07-.4-.06-.46-.11-.19-.14-.22-.25-.37-.39.24.23.05.11,0-.08.08.35.19.7.26,1.06.01.08.07.48,0,.05.03.21.05.41.08.62.07.51.13,1.03.23,1.53.18.88.5,1.76,1,2.51.82,1.22,2.08,2.23,3.63,1.91.5-.1.98-.27,1.47-.41l-3.08-1.75c.96,5.2,5.05,9.33,10,10.92,2.74.87,5.68.93,8.48.4,1.25-.24,2.5-.63,3.6-1.27.98-.57,1.76-1.36,2.64-2.06l-1.77.73.18-.02-1.26-.34c1.84.8,3.72,1.42,5.73,1.6,2.67.23,4.98-.94,6.91-2.7s3.3-3.98,4.55-6.18c1.52-2.64,2.6-5.39,2.91-8.44l-3.76,2.16c.63.44,1.26.87,1.88,1.32-.58-.42.27.24.54.4.35.2.74.38,1.13.48.91.25,1.87.26,2.79.06,3.87-.81,5.51-4.56,5.6-8.17.08-3.37-.23-7.45-2.77-9.95-2.79-2.75-6.89-2.4-10.43-1.87l2.82,3.67c2.13-2.77,4.39-5.29,4.09-9.08-.46-5.85-6.48-9.93-12.09-7.87l2.43,4.18c1.47-1.2,1.3-3.8,1.32-5.59.02-2.12-.26-4.23-1.13-6.17-1.68-3.76-5.39-5.61-9.31-6.07s-8.19.25-11.45,2.29c-3.5,2.2-5.86,6.52-4.42,10.65.45,1.27,1.71,2.12,3.08,1.75,1.24-.34,2.19-1.8,1.75-3.08-.82-2.34.8-4.33,2.81-5.39,2.21-1.17,5.05-1.47,7.51-1.28,2.13.16,4.35,1.01,5.39,2.99,1.22,2.34.78,5.35.53,7.86l.73-1.77-.34.28c-1.91,1.57.14,5.02,2.43,4.18,3.09-1.13,6.4,1.13,5.7,4.58-.38,1.86-2.23,3.57-3.35,5.03-.59.77-.35,2.09.2,2.78.68.85,1.59,1.05,2.63.9,1.66-.25,4.2-.68,5.57.59,1.44,1.33,1.31,4.22,1.31,6,0,.99-.02,2.23-.65,3.07-.15.2-.4.42-.71.55,0,0-.8.14-.46.14.17,0-.36-.16-.18-.03.22.16-.31-.23-.49-.37-.16-.12-.33-.23-.49-.35l-1.44-1.01c-1.71-1.2-3.59.46-3.76,2.16-.23,2.19-1.25,4.23-2.34,6.1-1.03,1.78-2.13,3.57-3.66,4.97-1.28,1.17-2.41,1.47-4.06,1.11-.78-.17-1.54-.42-2.29-.7-.14-.05-.27-.1-.4-.16.33.14.38.16.17.07-.61-.26-1.12-.39-1.77-.28-.99.18-1.48.8-2.21,1.39-.66.55-1.41.89-2.23,1.11-2.03.55-4.22.56-6.25.02-3.68-.99-6.43-3.85-7.12-7.6-.24-1.33-1.86-2.08-3.08-1.75l-1.47.41,1.93.25c.14.1-.07-.09-.04-.06-.07-.08-.14-.22-.17-.31.02.05.12.31.03.03s-.16-.56-.21-.84c-.02-.12-.04-.25-.06-.37-.07-.42.04.34-.01-.08-.18-1.31-.25-2.67-.95-3.84-1.61-2.7-5.01-1.65-7.14-2.82-1.8-.99-2.97-2.8-3.58-4.72-.17-.52-.3-1.04-.42-1.57-.05-.24-.09-.47-.14-.71-.02-.12-.04-.23-.06-.35.07.49,0-.03,0-.13-.09-1.12-.14-2.22.13-3.32.73-2.9,3.07-5.65,6.22-5.62,1.13.01,2.08-.79,2.41-1.84.39-1.23,1.14-2.72.85-4.03-.45-2.07-.29-3.73.93-5.55,2.75-4.1,8.38-4.3,12.79-3.73,1.34.17,2.5-1.27,2.5-2.5,0-1.5-1.15-2.33-2.5-2.5h0Z"/>
      </g>
      <g>
        <path class="cls-13" d="M1398.7,1057.71c-1.99,4.55-1.73,11.65-1.82,15.54.08,1.17.94,2.64,2.01,3.08.89.44,1.69.53,2.78.54,2.4.01,4.65-1.31,5.68-3.47.56-1.19.9-2.48,1.26-3.64.36-1.66.97-4.21,1.22-6.81-3.45-2.46-7.13-4.52-11.13-5.22Z"/>
        <path class="cls-11" d="M1406.96,1082.58c-.62.06-1.05.64-.92,1.25.15.71.46,1.59,1.11,2.41,1.48,1.86,3.71,2.17,4.88,2.19.44,0,.87-.18,1.14-.53,1.88-2.39,4.6-4.26,7.66-5.82.47-.24.25-.95-.27-.89-4.54.46-9.07.93-13.61,1.39Z"/>
        <path class="cls-20" d="M1406.17,1067.04c.27,2.49-2.98,3.69-3.62.94-.45-1.33.57-2.88,1.92-2.99.83.41,1.87.98,1.7,2.04Z"/>
      </g>
      <g>
        <path class="cls-13" d="M1425.83,1058.68c1.99,4.55,1.73,11.65,1.82,15.54-.08,1.17-.94,2.64-2.01,3.08-1.13.56-2.31.68-3.44.31-.51-.17-1.05-.24-1.58-.33-2.73-.49-3.97-4.19-4.7-6.55-.36-1.66-.97-4.21-1.22-6.81,3.45-2.46,7.13-4.52,11.13-5.22Z"/>
        <path class="cls-20" d="M1418.36,1068.01c-.27,2.49,2.98,3.69,3.62.94.45-1.33-.57-2.88-1.92-2.99-.83.41-1.87.98-1.7,2.04Z"/>
      </g>
    </g>
    <g>
      <g>
        <path class="cls-20" d="M1431.94,1247.91c-4.05-.55-8.41-.27-11.86,1.92-3.45,2.19-5.65,6.68-4.27,10.52l-.85,2.7c-4.94-.17-8.94,4.91-8.94,9.85,0,4.45,2.09,12.32,10.14,12.32,3.41,0,1.07,5.38,3.95,7.2l1.47-.41c.58,3.5,2.98,6.59,6.11,8.27s6.91,1.97,10.34,1.07c1.43-.38,2.28-.89,3.43-1.83.15-.13.49-.51.68-.62.06-.03.12-.05.18-.02.84.37,4.69,1.96,7.03.97,2.65-1.11,4.44-3.59,5.95-6.03,1.62-2.62,3.1-5.44,3.36-8.5l1.94,1.36c1.49,1.42,4.16.54,5.25-1.2s1.05-3.94.93-5.99c-.13-2.19-.41-4.58-1.98-6.1-2.02-1.95-5.23-1.65-8-1.23l2.55-3.3c1.68-2.28,1.64-5.67-.09-7.91s-5-3.13-7.63-2.07l.34-.28c.36-3.47.62-7.31-1.49-10.09-2.36-3.11-6.85-3.67-10.72-3.12-2.51.36-5.06,1.13-6.94,2.83s-2.93,4.51-2,6.87"/>
        <path class="cls-17" d="M1431.94,1245.41c-4.92-.64-10.25-.06-14.26,3.09-3.68,2.88-5.79,7.95-4.28,12.52v-1.33c-.28.9-.57,1.8-.85,2.7l2.41-1.84c-4.38-.04-8.24,2.85-10.08,6.72-1.55,3.25-1.62,6.77-.78,10.22.78,3.21,2.47,6.17,5.15,8.14,1.43,1.05,3.14,1.68,4.89,1.93.56.08,1.11.14,1.67.16-.11,0,.59.03.6.02-.06.07-.4-.06-.46-.11-.19-.14-.22-.25-.37-.39.24.23.05.11,0-.08.08.35.19.7.26,1.06.01.08.07.48,0,.05.03.21.05.41.08.62.07.51.13,1.03.23,1.53.18.88.5,1.76,1,2.51.82,1.22,2.08,2.23,3.63,1.91.5-.1.98-.27,1.47-.41l-3.08-1.75c.96,5.2,5.05,9.33,10,10.92,2.74.87,5.68.93,8.48.4,1.25-.24,2.5-.63,3.6-1.27.98-.57,1.76-1.36,2.64-2.06l-1.77.73.18-.02-1.26-.34c1.84.8,3.72,1.42,5.73,1.6,2.67.23,4.98-.94,6.91-2.7s3.3-3.98,4.55-6.18c1.52-2.64,2.6-5.39,2.91-8.44l-3.76,2.16c.63.44,1.26.87,1.88,1.32-.58-.42.27.24.54.4.35.2.74.38,1.13.48.91.25,1.87.26,2.79.06,3.87-.81,5.51-4.56,5.6-8.17.08-3.37-.23-7.45-2.77-9.95-2.79-2.75-6.89-2.4-10.43-1.87l2.82,3.67c2.13-2.77,4.39-5.29,4.09-9.08-.46-5.85-6.48-9.93-12.09-7.87l2.43,4.18c1.47-1.2,1.3-3.8,1.32-5.59.02-2.12-.26-4.23-1.13-6.17-1.68-3.76-5.39-5.61-9.31-6.07s-8.19.25-11.45,2.29c-3.5,2.2-5.86,6.52-4.42,10.65.45,1.27,1.71,2.12,3.08,1.75,1.24-.34,2.19-1.8,1.75-3.08-.82-2.34.8-4.33,2.81-5.39,2.21-1.17,5.05-1.47,7.51-1.28,2.13.16,4.35,1.01,5.39,2.99,1.22,2.34.78,5.35.53,7.86l.73-1.77-.34.28c-1.91,1.57.14,5.02,2.43,4.18,3.09-1.13,6.4,1.13,5.7,4.58-.38,1.86-2.23,3.57-3.35,5.03-.59.77-.35,2.09.2,2.78.68.85,1.59,1.05,2.63.9,1.66-.25,4.2-.68,5.57.59,1.44,1.33,1.31,4.22,1.31,6,0,.99-.02,2.23-.65,3.07-.15.2-.4.42-.71.55,0,0-.8.14-.46.14.17,0-.36-.16-.18-.03.22.16-.31-.23-.49-.37-.16-.12-.33-.23-.49-.35l-1.44-1.01c-1.71-1.2-3.59.46-3.76,2.16-.23,2.19-1.25,4.23-2.34,6.1-1.03,1.78-2.13,3.57-3.66,4.97-1.28,1.17-2.41,1.47-4.06,1.11-.78-.17-1.54-.42-2.29-.7-.14-.05-.27-.1-.4-.16.33.14.38.16.17.07-.61-.26-1.12-.39-1.77-.28-.99.18-1.48.8-2.21,1.39-.66.55-1.41.89-2.23,1.11-2.03.55-4.22.56-6.25.02-3.68-.99-6.43-3.85-7.12-7.6-.24-1.33-1.86-2.08-3.08-1.75l-1.47.41,1.93.25c.14.1-.07-.09-.04-.06-.07-.08-.14-.22-.17-.31.02.05.12.31.03.03s-.16-.56-.21-.84c-.02-.12-.04-.25-.06-.37-.07-.42.04.34-.01-.08-.18-1.31-.25-2.67-.95-3.84-1.61-2.7-5.01-1.65-7.14-2.82-1.8-.99-2.97-2.8-3.58-4.72-.17-.52-.3-1.04-.42-1.57-.05-.24-.09-.47-.14-.71-.02-.12-.04-.23-.06-.35.07.49,0-.03,0-.13-.09-1.12-.14-2.22.13-3.32.73-2.9,3.07-5.65,6.22-5.62,1.13.01,2.08-.79,2.41-1.84.39-1.23,1.14-2.72.85-4.03-.45-2.07-.29-3.73.93-5.55,2.75-4.1,8.38-4.3,12.79-3.73,1.34.17,2.5-1.27,2.5-2.5,0-1.5-1.15-2.33-2.5-2.5h0Z"/>
      </g>
      <g>
        <path class="cls-13" d="M1421.66,1262.2c-1.99,4.55-1.73,11.65-1.82,15.54.08,1.17.94,2.64,2.01,3.08.89.44,1.69.53,2.78.54,2.4.01,4.65-1.31,5.68-3.47.56-1.19.9-2.48,1.26-3.64.36-1.66.97-4.21,1.22-6.81-3.45-2.46-7.13-4.52-11.13-5.22Z"/>
        <path class="cls-11" d="M1429.92,1287.08c-.62.06-1.05.64-.92,1.25.15.71.46,1.59,1.11,2.41,1.48,1.86,3.71,2.17,4.88,2.19.44,0,.87-.18,1.14-.53,1.88-2.39,4.6-4.26,7.66-5.82.47-.24.25-.95-.27-.89-4.54.46-9.07.93-13.61,1.39Z"/>
        <path class="cls-20" d="M1429.13,1271.53c.27,2.49-2.98,3.69-3.62.94-.45-1.33.57-2.88,1.92-2.99.83.41,1.87.98,1.7,2.04Z"/>
      </g>
      <g>
        <path class="cls-13" d="M1448.79,1263.17c1.99,4.55,1.73,11.65,1.82,15.54-.08,1.17-.94,2.64-2.01,3.08-1.13.56-2.31.68-3.44.31-.51-.17-1.05-.24-1.58-.33-2.73-.49-3.97-4.19-4.7-6.55-.36-1.66-.97-4.21-1.22-6.81,3.45-2.46,7.13-4.52,11.13-5.22Z"/>
        <path class="cls-20" d="M1441.32,1272.5c-.27,2.49,2.98,3.69,3.62.94.45-1.33-.57-2.88-1.92-2.99-.83.41-1.87.98-1.7,2.04Z"/>
      </g>
    </g>
    <g>
      <g>
        <path class="cls-20" d="M1012.22,1059.43c-10.63-1.46-22.05-.72-31.11,5.04-9.05,5.75-14.83,17.5-11.19,27.6l-2.24,7.07c-12.95-.44-23.44,12.88-23.44,25.84,0,11.67,5.48,32.3,26.58,32.3,8.93,0,2.8,14.12,10.36,18.87l3.86-1.06c1.52,9.18,7.81,17.29,16.01,21.67,8.21,4.39,18.12,5.16,27.12,2.8,3.76-.99,5.98-2.33,8.98-4.8.41-.33,1.29-1.33,1.77-1.63.15-.09.31-.12.47-.05,2.2.97,12.29,5.14,18.45,2.55,6.94-2.92,11.64-9.41,15.59-15.82,4.24-6.86,8.14-14.25,8.81-22.29l5.09,3.58c3.9,3.73,10.9,1.42,13.77-3.15s2.77-10.33,2.44-15.71c-.34-5.74-1.07-12.01-5.2-16-5.29-5.1-13.72-4.34-20.98-3.23l6.68-8.66c4.4-5.97,4.3-14.86-.24-20.73-4.54-5.87-13.12-8.2-20.01-5.44l.89-.73c.95-9.09,1.63-19.17-3.89-26.45-6.2-8.16-17.97-9.63-28.11-8.18-6.58.94-13.27,2.96-18.21,7.42-4.93,4.46-7.68,11.82-5.25,18.01"/>
        <path class="cls-17" d="M1012.22,1056.93c-9.54-1.28-19.48-.8-28.35,3.21-7.84,3.54-14.11,10.37-16.54,18.67-1.33,4.52-1.37,9.45.19,13.92v-1.33c-.75,2.36-1.49,4.71-2.24,7.07l2.41-1.84c-10.29-.25-19.18,7.12-23.22,16.21-3.38,7.61-3.27,15.91-1.18,23.85,1.93,7.34,5.83,14.3,12.19,18.67,3.64,2.5,7.91,3.81,12.27,4.26,1.11.11,2.23.13,3.34.16-.03,0,.77.08.39.02s.34.09.33.08c.11.03.72.28.17.02.17.08.34.18.5.28.51.29-.23-.24,0,0,.1.11.22.22.32.33.41.42-.18-.3,0,.01.08.14.16.27.24.41,0,.01.28.59.13.23s.09.26.1.27c.13.41.25.82.35,1.24.47,2.05.49,3.25.82,5.53.31,2.12.79,4.2,1.79,6.11s3.24,4.74,5.63,4.23c1.29-.27,2.57-.71,3.84-1.06l-3.08-1.75c1.57,9.1,7.46,17.14,15.2,22.03,8.64,5.45,19.48,6.73,29.36,4.59,2.6-.57,5.17-1.4,7.48-2.75,1.06-.62,2.05-1.35,3.02-2.11.51-.4,1.03-.79,1.5-1.23.2-.18.39-.38.58-.57.27-.27.97-.6.04-.25h-1.33c-.51-.07-.06-.07.2.02.39.14.78.33,1.17.49.68.28,1.37.54,2.07.79,1.75.62,3.54,1.15,5.36,1.53,4.4.93,8.76,1.03,12.87-.98,4.37-2.14,7.88-5.67,10.82-9.47,3.1-4.01,5.79-8.41,8.16-12.89,2.89-5.47,5.05-11.24,5.61-17.43l-3.76,2.16c1.24.87,2.47,1.74,3.71,2.61.44.31.91.61,1.34.94.22.17-.74-.6,0,.05.3.26.66.53,1,.75.68.44,1.46.77,2.22,1.01,5.51,1.72,11.76-1.69,14.42-6.53,3.28-5.97,2.79-13.5,2.06-20.05s-2.67-12.67-8.4-16.12c-6.16-3.7-13.89-2.76-20.64-1.74l2.82,3.67c1.41-1.83,2.83-3.66,4.24-5.5,1.72-2.24,3.42-4.31,4.51-6.96,3.85-9.32,0-20.71-9.21-25.14-4.94-2.38-10.78-2.9-15.94-.9l2.43,4.18c.28-.23.61-.45.86-.71.87-.87.81-2.23.92-3.38.18-1.82.33-3.63.41-5.46.17-3.75.05-7.54-.71-11.24-1.43-6.95-5.69-12.92-12.1-16.08s-13.21-3.7-19.94-3.05c-7.46.71-15.08,2.67-21.06,7.39s-10.04,13.75-7.13,21.49c.47,1.26,1.69,2.13,3.08,1.75,1.21-.33,2.22-1.8,1.75-3.08-2.01-5.34.11-11.2,4.06-15.07,4.56-4.46,11.09-6.32,17.24-7.23,10.29-1.52,23.64.2,28.08,11.12,2.68,6.59,1.87,14.15,1.16,21.04l.73-1.77-.89.73c-1.89,1.55.14,5.07,2.43,4.18,7.25-2.81,16.34.37,19.26,7.87,1.45,3.74,1.45,8.07-.15,11.76-.94,2.17-2.54,3.98-3.97,5.84s-2.92,3.79-4.38,5.68c-.59.77-.35,2.09.2,2.78.68.85,1.59,1.05,2.63.9,4.89-.74,10.44-1.49,15.17.41,4.85,1.95,6.69,6.75,7.41,11.57.4,2.69.53,5.46.59,8.18s-.07,5.66-.96,8.37c-.71,2.18-1.98,4.07-3.96,5.27-1.68,1.02-3.7,1.52-5.4,1.07-1.34-.36-2.59-1.57-3.85-2.45-1.18-.83-2.35-1.65-3.53-2.48-1.69-1.19-3.61.45-3.76,2.16-.44,4.81-2.15,9.43-4.32,13.72s-4.57,8.25-7.28,12.07c-2.4,3.37-5.25,6.6-8.82,8.75-3.29,1.98-6.47,2.22-10.21,1.5-1.72-.33-3.41-.81-5.08-1.36-.66-.22-1.31-.46-1.96-.7-.27-.1-.53-.21-.8-.32-.12-.05-.23-.1-.35-.14-.32-.13.48.21.08.03-1.02-.44-1.97-.73-3.04-.22-.96.45-1.63,1.29-2.4,1.99-1.46,1.32-3.2,2.47-4.99,3.28-3.98,1.8-8.77,2.31-13.09,2.25s-9.14-.95-13.28-2.83c-8.62-3.92-15.13-11.71-16.76-21.11-.23-1.33-1.87-2.08-3.08-1.75-1.29.35-2.58.71-3.86,1.06l1.93.25c-.49-.32-.29-.16-.7-.55-.24-.23-.46-.46-.66-.72.22.29-.29-.49-.35-.6-.27-.47-.37-.7-.42-.83-.56-1.45-.83-2.99-1.06-4.53-.06-.43.04.33-.01-.09-.03-.21-.05-.42-.08-.63-.04-.33-.08-.66-.12-.99-.12-.94-.24-1.88-.4-2.8-.25-1.4-.65-2.85-1.4-4.07-.86-1.42-2.13-2.44-3.7-2.99-1.83-.64-3.9-.37-5.8-.56-3.46-.36-6.64-1.5-9.52-3.43-5-3.35-8.16-9.05-9.85-14.86-.42-1.46-.77-2.95-1.03-4.45-.06-.35-.12-.7-.18-1.06-.02-.15-.05-.31-.07-.47-.11-.74.04.31-.02-.14-.09-.71-.16-1.42-.22-2.13-.27-3.53-.03-6.97,1.04-10.37,2.72-8.57,10.31-16.33,19.77-16.1,1.13.03,2.08-.8,2.41-1.84.72-2.28,1.58-4.56,2.17-6.87.24-.91,0-1.66-.27-2.54-.34-1.13-.56-2.29-.64-3.47-.14-2.24.12-4.44.73-6.6,1.27-4.45,3.92-8.4,7.35-11.47,3.85-3.44,8.81-5.48,13.8-6.57,6.21-1.36,12.69-1.18,18.97-.34,1.34.18,2.5-1.28,2.5-2.5,0-1.5-1.16-2.32-2.5-2.5h0Z"/>
      </g>
      <g>
        <path class="cls-13" d="M985.26,1096.92c-5.21,11.93-4.54,30.56-4.77,40.74.2,3.06,2.46,6.93,5.27,8.07,2.34,1.16,4.43,1.39,7.28,1.41,6.29.04,12.19-3.43,14.89-9.11,1.48-3.11,2.36-6.51,3.31-9.56.94-4.34,2.54-11.04,3.21-17.85-9.05-6.46-18.7-11.85-29.19-13.7Z"/>
        <path class="cls-11" d="M1006.93,1162.15c-1.62.17-2.74,1.69-2.42,3.28.38,1.85,1.2,4.16,2.92,6.33,3.89,4.89,9.72,5.7,12.79,5.75,1.16.02,2.28-.47,2.99-1.38,4.93-6.28,12.05-11.16,20.1-15.27,1.22-.63.67-2.48-.7-2.34-11.9,1.21-23.79,2.43-35.69,3.64Z"/>
        <path class="cls-20" d="M1004.85,1121.39c.7,6.52-7.82,9.67-9.49,2.47-1.17-3.5,1.5-7.55,5.04-7.83,2.17,1.06,4.92,2.57,4.45,5.36Z"/>
      </g>
      <g>
        <path class="cls-13" d="M1056.4,1099.46c5.21,11.93,4.54,30.56,4.77,40.74-.2,3.06-2.46,6.93-5.27,8.07-2.97,1.48-6.05,1.77-9.02.8-1.34-.44-2.75-.63-4.13-.88-7.17-1.29-10.4-11-12.33-17.19-.94-4.34-2.54-11.04-3.21-17.85,9.05-6.46,18.7-11.85,29.19-13.7Z"/>
        <path class="cls-20" d="M1036.81,1123.93c-.7,6.52,7.82,9.67,9.49,2.47,1.17-3.5-1.5-7.55-5.04-7.83-2.17,1.06-4.92,2.57-4.45,5.36Z"/>
      </g>
    </g>
    <path class="cls-17" d="M1004.66,1088.25c.68.82,1.37,1.63,2,2.49-.12-.17-.19-.25-.03-.03.08.11.16.21.24.32.16.21.32.42.48.64.34.45.67.91,1,1.37,1.26,1.76,2.46,3.56,3.6,5.4.69,1.11,2.27,1.64,3.42.9s1.63-2.23.9-3.42c-2.43-3.92-5.14-7.65-8.08-11.19-.84-1.01-2.68-.93-3.54,0-.99,1.07-.89,2.46,0,3.54h0Z"/>
    <path class="cls-17" d="M1029.67,1096.63c.68-1.02,1.38-2.03,2.12-3.01.18-.25.37-.49.56-.73.22-.29-.25.31-.02.02.11-.13.21-.27.32-.4.38-.48.77-.96,1.17-1.42,1.58-1.88,3.27-3.66,5.04-5.36.95-.9.98-2.64,0-3.54s-2.52-.96-3.54,0c-3.76,3.58-7.09,7.6-9.96,11.92-.73,1.09-.25,2.81.9,3.42,1.26.66,2.65.27,3.42-.9h0Z"/>
    <g>
      <g>
        <g>
          <path class="cls-20" d="M1263.88,955.36c-6.41-.88-13.31-.43-18.77,3.04-5.46,3.47-8.95,10.56-6.75,16.65l-1.35,4.27c-7.82-.27-14.14,7.77-14.14,15.59,0,7.04,3.31,19.49,16.04,19.49,5.39,0,1.69,8.52,6.25,11.39l2.33-.64c.92,5.54,4.71,10.43,9.66,13.08,4.95,2.65,10.94,3.12,16.37,1.69,2.27-.6,3.61-1.41,5.42-2.9.24-.2.78-.8,1.07-.98.09-.05.19-.07.28-.03,1.32.59,7.42,3.1,11.13,1.54,4.19-1.76,7.02-5.68,9.41-9.54,2.56-4.14,4.91-8.6,5.32-13.45l3.07,2.16c2.35,2.25,6.58.85,8.31-1.9,1.73-2.75,1.67-6.23,1.48-9.48-.21-3.46-.64-7.25-3.14-9.66-3.19-3.08-8.28-2.62-12.66-1.95l4.03-5.22c2.66-3.6,2.59-8.97-.15-12.51-2.74-3.54-7.92-4.95-12.07-3.28l.54-.44c.57-5.49.99-11.57-2.35-15.96-3.74-4.92-10.84-5.81-16.96-4.94-3.97.57-8.01,1.79-10.99,4.48-2.98,2.69-4.63,7.13-3.17,10.87"/>
          <path class="cls-17" d="M1263.88,952.86c-7.45-.99-15.63-.2-21.72,4.6-5.31,4.2-8.48,11.63-6.22,18.26v-1.33c-.45,1.42-.9,2.84-1.35,4.27l2.41-1.84c-6.42-.12-12.05,4.28-14.71,9.93-2.27,4.82-2.32,10.04-1.06,15.14,1.18,4.74,3.65,9.17,7.67,12.05,2.24,1.61,4.9,2.47,7.61,2.81.73.09,1.47.15,2.2.15.14,0,.29,0,.44,0-.07,0-.32.01-.08-.01.11-.01.21.08.31.08-.2,0-.28-.21-.06,0-.33-.29-.07-.1.06.08-.26-.36-.07-.1.03.12.17.37-.05-.35.08.25.06.25.13.49.19.74.06.27.1.53.14.8.05.29,0-.02,0-.06.02.16.04.33.06.49.1.77.19,1.53.31,2.3.21,1.27.57,2.54,1.2,3.67.86,1.52,2.51,3.25,4.42,2.85.78-.16,1.56-.43,2.33-.64l-3.08-1.75c1.35,7.61,7.28,13.72,14.49,16.15,3.9,1.31,8.09,1.5,12.14.87,1.9-.29,3.77-.79,5.5-1.64,1.52-.75,2.95-2.15,4.06-3l-1.26.34.28-.03-1.26-.34c2.64,1.16,5.38,2.04,8.26,2.32,3.89.38,7.24-1.32,10.05-3.91,2.9-2.68,5.07-6.19,7.01-9.6,2.2-3.88,3.87-7.95,4.29-12.42l-3.76,2.16c.77.54,1.54,1.08,2.3,1.62.16.11,1.07.81.5.36.78.62,1.58,1.13,2.56,1.39,3.71,1,7.81-1.08,9.65-4.35,2.13-3.76,1.89-8.49,1.43-12.65s-1.7-8.1-5.33-10.46c-3.95-2.58-9.05-1.96-13.46-1.3l2.82,3.67c1.17-1.52,2.34-3.03,3.51-4.55,1.93-2.5,2.99-5.57,2.79-8.76-.25-4.17-2.34-7.95-5.92-10.18-3.34-2.08-7.71-2.6-11.39-1.2l2.43,4.18c.82-.67,1.17-1.31,1.29-2.4.13-1.19.23-2.39.3-3.59.13-2.41.06-4.83-.38-7.21-.84-4.48-3.56-8.43-7.65-10.51-3.87-1.97-8.38-2.47-12.67-2.06-4.84.46-9.74,1.73-13.57,4.86s-6.22,8.87-4.42,13.82c.46,1.27,1.7,2.12,3.08,1.75,1.22-.34,2.21-1.8,1.75-3.08-1.08-2.95.06-6.05,2.26-8.18,2.57-2.49,6.3-3.51,9.75-4.03,5.77-.86,13.46-.02,15.95,6.17,1.54,3.83,1.01,8.27.6,12.26l.73-1.77-.54.44c-1.9,1.56.14,5.05,2.43,4.18,5.66-2.15,11.77,2.17,10.95,8.37-.27,2.01-1.36,3.5-2.55,5.05-1.01,1.31-2.02,2.62-3.03,3.93-.59.77-.35,2.09.2,2.78.68.85,1.59,1.05,2.63.9,3.21-.48,7.62-1.15,10.23,1.3s2.5,7.27,2.5,10.56c0,3-.84,7.24-4.36,7.33-.87.02-1.52-.62-2.43-1.26-.8-.56-1.59-1.12-2.39-1.68-1.7-1.2-3.6.46-3.76,2.16-.53,5.5-3.78,10.74-6.92,15.14-1.4,1.96-3.08,3.8-5.18,5.01-1.8,1.03-3.57.99-5.59.54-1.01-.22-2-.51-2.97-.85-.35-.12-.69-.25-1.03-.38-.15-.06-.31-.12-.46-.19.63.26.19.08.06.02-1.71-.73-2.84-.01-4.09,1.13-.82.76-1.76,1.42-2.77,1.9-4.5,2.11-10.68,1.73-15.14-.25-5.01-2.23-8.68-6.73-9.64-12.14-.24-1.33-1.87-2.08-3.08-1.75l-2.33.64,1.93.25c-.24-.16-.38-.3-.51-.49-.09-.13-.17-.28-.25-.42-.37-.65.12.41-.14-.3-.14-.39-.25-.79-.34-1.2-.05-.25-.1-.5-.14-.75-.01-.07-.12-.77-.06-.34-.27-1.92-.34-3.94-1.33-5.66-1.29-2.23-3.46-2.47-5.79-2.6-2.05-.12-3.97-.7-5.63-1.72-2.94-1.81-4.82-5.03-5.83-8.37-.26-.87-.48-1.76-.65-2.66-.07-.39-.14-.79-.2-1.18.08.56-.02-.2-.03-.26-.02-.22-.05-.45-.07-.67-.17-2-.09-3.95.48-5.89,1.45-4.92,5.69-9.41,11.07-9.31,1.13.02,2.08-.8,2.41-1.84.29-.91.57-1.81.86-2.72.41-1.31.68-2.14.27-3.56-.94-3.26.1-6.65,1.95-9.39,4.64-6.83,13.94-7.44,21.38-6.46,1.34.18,2.5-1.28,2.5-2.5,0-1.5-1.16-2.32-2.5-2.5h0Z"/>
        </g>
        <g>
          <path class="cls-13" d="M1247.61,977.98c-3.14,7.2-2.74,18.44-2.88,24.58.12,1.85,1.49,4.18,3.18,4.87,1.41.7,2.67.84,4.39.85,3.79.02,7.35-2.07,8.98-5.5.89-1.88,1.42-3.93,2-5.77.57-2.62,1.53-6.66,1.94-10.77-5.46-3.9-11.28-7.15-17.61-8.26Z"/>
          <path class="cls-11" d="M1260.69,1017.34c-.98.1-1.66,1.02-1.46,1.98.23,1.12.72,2.51,1.76,3.82,2.35,2.95,5.87,3.44,7.72,3.47.7.01,1.37-.28,1.81-.83,2.98-3.79,7.27-6.74,12.13-9.22.74-.38.4-1.5-.42-1.41-7.18.73-14.36,1.47-21.53,2.2Z"/>
          <path class="cls-20" d="M1259.44,992.74c.42,3.93-4.72,5.83-5.73,1.49-.7-2.11.91-4.56,3.04-4.73,1.31.64,2.97,1.55,2.69,3.23Z"/>
        </g>
        <g>
          <path class="cls-13" d="M1290.54,979.51c3.14,7.2,2.74,18.44,2.88,24.58-.12,1.85-1.49,4.18-3.18,4.87-1.79.89-3.65,1.07-5.44.48-.81-.27-1.66-.38-2.49-.53-4.33-.78-6.28-6.64-7.44-10.37-.57-2.62-1.53-6.66-1.94-10.77,5.46-3.9,11.28-7.15,17.61-8.26Z"/>
          <path class="cls-20" d="M1278.72,994.28c-.42,3.93,4.72,5.83,5.73,1.49.7-2.11-.91-4.56-3.04-4.73-1.31.64-2.97,1.55-2.69,3.23Z"/>
        </g>
      </g>
      <path class="cls-17" d="M1274.41,979.07c2.15-2.13,4.09-4.45,5.86-6.91.36-.5.41-1.36.25-1.93s-.61-1.21-1.15-1.49c-.58-.31-1.28-.46-1.93-.25s-1.1.59-1.49,1.15c-.36.51-.74,1.01-1.12,1.5l.39-.51c-1.34,1.73-2.79,3.37-4.35,4.9-.93.92-.99,2.63,0,3.54s2.54.98,3.54,0h0Z"/>
      <path class="cls-17" d="M1265.3,974.02c-2.15-1.1-4.2-2.38-6.14-3.83-.49-.36-1.37-.41-1.93-.25s-1.21.61-1.49,1.15c-.31.58-.46,1.28-.25,1.93l.25.6c.22.38.52.67.9.9,1.94,1.44,3.99,2.73,6.14,3.83.6.31,1.27.43,1.93.25.58-.16,1.21-.61,1.49-1.15.6-1.14.35-2.78-.9-3.42h0Z"/>
    </g>
    <g>
      <g>
        <g>
          <path class="cls-20" d="M552.51,1091.83c-6.41-.88-13.31-.43-18.77,3.04-5.46,3.47-8.95,10.56-6.75,16.65l-1.35,4.27c-7.82-.27-14.14,7.77-14.14,15.59,0,7.04,3.31,19.49,16.04,19.49,5.39,0,1.69,8.52,6.25,11.39l2.33-.64c.92,5.54,4.71,10.43,9.66,13.08,4.95,2.65,10.94,3.12,16.37,1.69,2.27-.6,3.61-1.41,5.42-2.9.24-.2.78-.8,1.07-.98.09-.05.19-.07.28-.03,1.32.59,7.42,3.1,11.13,1.54,4.19-1.76,7.02-5.68,9.41-9.54,2.56-4.14,4.91-8.6,5.32-13.45l3.07,2.16c2.35,2.25,6.58.85,8.31-1.9,1.73-2.75,1.67-6.23,1.48-9.48-.21-3.46-.64-7.25-3.14-9.66-3.19-3.08-8.28-2.62-12.66-1.95l4.03-5.22c2.66-3.6,2.59-8.97-.15-12.51-2.74-3.54-7.92-4.95-12.07-3.28l.54-.44c.57-5.49.99-11.57-2.35-15.96-3.74-4.92-10.84-5.81-16.96-4.94-3.97.57-8.01,1.79-10.99,4.48-2.98,2.69-4.63,7.13-3.17,10.87"/>
          <path class="cls-17" d="M552.51,1089.33c-7.45-.99-15.63-.2-21.72,4.6-5.31,4.2-8.48,11.63-6.22,18.26v-1.33c-.45,1.42-.9,2.84-1.35,4.27l2.41-1.84c-6.42-.12-12.05,4.28-14.71,9.93-2.27,4.82-2.32,10.04-1.06,15.14,1.18,4.74,3.65,9.17,7.67,12.05,2.24,1.61,4.9,2.47,7.61,2.81.73.09,1.47.15,2.2.15.14,0,.29,0,.44,0-.07,0-.32.01-.08-.01.11-.01.21.08.31.08-.2,0-.28-.21-.06,0-.33-.29-.07-.1.06.08-.26-.36-.07-.1.03.12.17.37-.05-.35.08.25.06.25.13.49.19.74.06.27.1.53.14.8.05.29,0-.02,0-.06.02.16.04.33.06.49.1.77.19,1.53.31,2.3.21,1.27.57,2.54,1.2,3.67.86,1.52,2.51,3.25,4.42,2.85.78-.16,1.56-.43,2.33-.64l-3.08-1.75c1.35,7.61,7.28,13.72,14.49,16.15,3.9,1.31,8.09,1.5,12.14.87,1.9-.29,3.77-.79,5.5-1.64,1.52-.75,2.95-2.15,4.06-3l-1.26.34.28-.03-1.26-.34c2.64,1.16,5.38,2.04,8.26,2.32,3.89.38,7.24-1.32,10.05-3.91s5.07-6.19,7.01-9.6c2.2-3.88,3.87-7.95,4.29-12.42l-3.76,2.16c.77.54,1.54,1.08,2.3,1.62.16.11,1.07.81.5.36.78.62,1.58,1.13,2.56,1.39,3.71,1,7.81-1.08,9.65-4.35,2.13-3.76,1.89-8.49,1.43-12.65s-1.7-8.1-5.33-10.46c-3.95-2.58-9.05-1.96-13.46-1.3l2.82,3.67c1.17-1.52,2.34-3.03,3.51-4.55,1.93-2.5,2.99-5.57,2.79-8.76-.25-4.17-2.34-7.95-5.92-10.18-3.34-2.08-7.71-2.6-11.39-1.2l2.43,4.18c.82-.67,1.17-1.31,1.29-2.4.13-1.19.23-2.39.3-3.59.13-2.41.06-4.83-.38-7.21-.84-4.48-3.56-8.43-7.65-10.51-3.87-1.97-8.38-2.47-12.67-2.06-4.84.46-9.74,1.73-13.57,4.86-3.94,3.22-6.22,8.87-4.42,13.82.46,1.27,1.7,2.12,3.08,1.75,1.22-.34,2.21-1.8,1.75-3.08-1.08-2.95.06-6.05,2.26-8.18,2.57-2.49,6.3-3.51,9.75-4.03,5.77-.86,13.46-.02,15.95,6.17,1.54,3.83,1.01,8.27.6,12.26l.73-1.77-.54.44c-1.9,1.56.14,5.05,2.43,4.18,5.66-2.15,11.77,2.17,10.95,8.37-.27,2.01-1.36,3.5-2.55,5.05-1.01,1.31-2.02,2.62-3.03,3.93-.59.77-.35,2.09.2,2.78.68.85,1.59,1.05,2.63.9,3.21-.48,7.62-1.15,10.23,1.3s2.5,7.27,2.5,10.56c0,3-.84,7.24-4.36,7.33-.87.02-1.52-.62-2.43-1.26-.8-.56-1.59-1.12-2.39-1.68-1.7-1.2-3.6.46-3.76,2.16-.53,5.5-3.78,10.74-6.92,15.14-1.4,1.96-3.08,3.8-5.18,5.01-1.8,1.03-3.57.99-5.59.54-1.01-.22-2-.51-2.97-.85-.35-.12-.69-.25-1.03-.38-.15-.06-.31-.12-.46-.19.63.26.19.08.06.02-1.71-.73-2.84-.01-4.09,1.13-.82.76-1.76,1.42-2.77,1.9-4.5,2.11-10.68,1.73-15.14-.25-5.01-2.23-8.68-6.73-9.64-12.14-.24-1.33-1.87-2.08-3.08-1.75l-2.33.64,1.93.25c-.24-.16-.38-.3-.51-.49-.09-.13-.17-.28-.25-.42-.37-.65.12.41-.14-.3-.14-.39-.25-.79-.34-1.2-.05-.25-.1-.5-.14-.75-.01-.07-.12-.77-.06-.34-.27-1.92-.34-3.94-1.33-5.66-1.29-2.23-3.46-2.47-5.79-2.6-2.05-.12-3.97-.7-5.63-1.72-2.94-1.81-4.82-5.03-5.83-8.37-.26-.87-.48-1.76-.65-2.66-.07-.39-.14-.79-.2-1.18.08.56-.02-.2-.03-.26-.02-.22-.05-.45-.07-.67-.17-2-.09-3.95.48-5.89,1.45-4.92,5.69-9.41,11.07-9.31,1.13.02,2.08-.8,2.41-1.84.29-.91.57-1.81.86-2.72.41-1.31.68-2.14.27-3.56-.94-3.26.1-6.65,1.95-9.39,4.64-6.83,13.94-7.44,21.38-6.46,1.34.18,2.5-1.28,2.5-2.5,0-1.5-1.16-2.32-2.5-2.5h0Z"/>
        </g>
        <g>
          <path class="cls-13" d="M536.24,1114.45c-3.14,7.2-2.74,18.44-2.88,24.58.12,1.85,1.49,4.18,3.18,4.87,1.41.7,2.67.84,4.39.85,3.79.02,7.35-2.07,8.98-5.5.89-1.88,1.42-3.93,2-5.77.57-2.62,1.53-6.66,1.94-10.77-5.46-3.9-11.28-7.15-17.61-8.26Z"/>
          <path class="cls-11" d="M549.31,1153.81c-.98.1-1.66,1.02-1.46,1.98.23,1.12.72,2.51,1.76,3.82,2.35,2.95,5.87,3.44,7.72,3.47.7.01,1.37-.28,1.81-.83,2.98-3.79,7.27-6.74,12.13-9.22.74-.38.4-1.5-.42-1.41-7.18.73-14.36,1.47-21.53,2.2Z"/>
          <path class="cls-20" d="M548.06,1129.21c.42,3.93-4.72,5.83-5.73,1.49-.7-2.11.91-4.56,3.04-4.73,1.31.64,2.97,1.55,2.69,3.23Z"/>
        </g>
        <g>
          <path class="cls-13" d="M579.17,1115.98c3.14,7.2,2.74,18.44,2.88,24.58-.12,1.85-1.49,4.18-3.18,4.87-1.79.89-3.65,1.07-5.44.48-.81-.27-1.66-.38-2.49-.53-4.33-.78-6.28-6.64-7.44-10.37-.57-2.62-1.53-6.66-1.94-10.77,5.46-3.9,11.28-7.15,17.61-8.26Z"/>
          <path class="cls-20" d="M567.35,1130.75c-.42,3.93,4.72,5.83,5.73,1.49.7-2.11-.91-4.56-3.04-4.73-1.31.64-2.97,1.55-2.69,3.23Z"/>
        </g>
      </g>
      <path class="cls-17" d="M562.86,1115.6c3.22-3.79,6.65-7.39,10.27-10.81.95-.9.98-2.64,0-3.54s-2.52-.96-3.54,0c-3.62,3.41-7.05,7.02-10.27,10.81-.85.99-1.05,2.57,0,3.54.93.86,2.63,1.06,3.54,0h0Z"/>
      <path class="cls-17" d="M552.69,1109.99c-.87-.48-1.71-1.01-2.52-1.58-.2-.14-.4-.29-.6-.44-.43-.32.46.36.03.03-.08-.06-.16-.12-.23-.19-.41-.33-.8-.67-1.19-1.02-.73-.67-1.43-1.37-2.09-2.12-.33-.37-.64-.76-.95-1.14-.19-.24.33.45.07.09-.07-.1-.15-.2-.22-.3-.16-.22-.32-.44-.47-.67-.74-1.08-2.23-1.67-3.42-.9-1.07.69-1.69,2.27-.9,3.42,2.58,3.75,5.96,6.91,9.96,9.12,1.14.63,2.78.31,3.42-.9s.32-2.74-.9-3.42h0Z"/>
    </g>
    <path class="cls-23" d="M622.94,2306.68v63.48c0,3.22,5,3.22,5,0v-63.48c0-3.22-5-3.22-5,0h0Z"/>
    <path class="cls-23" d="M1178.85,2306.68v63.48c0,3.22,5,3.22,5,0v-63.48c0-3.22-5-3.22-5,0h0Z"/>
    <path class="cls-23" d="M11.78,0v424.6l8.2,4.32c379.32,215.67,914.02-153.1,1166.79-220.24,200.32-53.21,411.25,12.63,506.87,50.2l1.23.65V0H11.78Z"/>
    <rect class="cls-23" x="11.78" y="2242.4" width="1683.09" height="56.21"/>
  </g>
  <g id="Layer_11" data-name="Layer 11">
    <path class="cls-17" d="M2.41,2385.86c3.22,0,3.22-5,0-5s-3.22,5,0,5h0Z"/>
    <g>
      <g>
        <path class="cls-1" d="M1241.51,706.33c108.96,33.07,236.84-49.03,256.82-162.4,10.71-206.02-304.78-297.05-378.02-98.65-40.87,97.52,30.03,223.83,121.2,261.05Z"/>
        <g>
          <g>
            <path class="cls-4" d="M1209.57,412.21c-59.6-.93-69.12,107.84-20.28,126.92,80.3,24.68,89.8-118.99,20.28-126.92Z"/>
            <path class="cls-17" d="M1209.57,412.21c69.53,7.94,60.02,151.6-20.27,126.91-48.86-19.07-39.32-127.83,20.27-126.91ZM1207.35,530.21c10.61-2.72,26.68-6.44,30.27-18.86,40.2-78.03-129.94,8.15-30.27,18.86ZM1210.46,460.02c54.32-.64-.84-58.39-21.28-25.58,1.82,11.18,8.37,25.02,21.28,25.58Z"/>
            <path class="cls-23" d="M1207.35,530.21c-99.67-10.71,70.46-96.89,30.26-18.86-3.58,12.42-19.65,16.14-30.26,18.86Z"/>
            <path class="cls-23" d="M1210.46,460.02c-26.93-5.15-27.78-41.74,4.52-35.25,23.03,14.21,28.76,33.55-4.52,35.25Z"/>
          </g>
          <path class="cls-17" d="M1373.34,391.82c-77.3-7.66-94.03,142.29-5.14,134.31,2.53-.23,5.08-.36,7.61-.54,58.32-4.02,49.72-95.81,12.08-127.68-4.1-3.47-9.21-5.56-14.55-6.09Z"/>
          <path class="cls-23" d="M1355.92,516.85c-23.4,0-31.1-27.16-24.69-32.65,18.7-16.63,42.12-28.4,66.54-17.81,0,0,5.46,1.87,5.46,8.25,0,24.72-5.54,42.22-47.31,42.22Z"/>
          <path class="cls-23" d="M1376.47,403.8c28.25,14.4,8.53,27.24-9.56,27.21-7.71-.01-12.9-3.7-18.04-8.32-5.7-5.11-4.08-15.35,2.91-17.73,8.31-2.83,19.1-3.43,24.68-1.17Z"/>
        </g>
        <path class="cls-17" d="M1329.14,565.47c12.84-2.37,24.77-9.43,33.01-19.55.85-1.05,1.02-2.51,0-3.54-.88-.88-2.68-1.05-3.54,0-7.77,9.55-18.7,16.03-30.81,18.27-1.33.25-2.08,1.85-1.75,3.08.38,1.4,1.74,1.99,3.08,1.75h0Z"/>
      </g>
      <path class="cls-5" d="M1405.33,630.56c-10.05,32.34-69.89,40.18-70.79,10.59,1.95-17.14,24.98-37.16,44.33-39.17,16.31-.34,32.25,12.39,26.46,28.58Z"/>
      <path class="cls-5" d="M1192.58,594.82c-1.57-.74-3.04-1.09-4.38-1.11-5.42-10.43-13.54-19.8-23.38-23.99-14.42-6.8-23.17,6.79-20.84,21.91,4.13,18.07,23.95,41.16,38.69,44.5,5.38.39,8.93-1.92,10.92-5.9,3.39,3.01,6.93,5.2,10.09,5.91,15.49,1.14,6.69-33.73-11.1-41.32Z"/>
      <path class="cls-5" d="M1226.28,362.64c12.53-19.62,54.71-17.57,50.13,1.59-4.34,10.8-23.55,20.96-37.1,19.95-11.18-1.72-19.82-11.8-13.03-21.54Z"/>
      <path class="cls-5" d="M1232.84,688.52c7.17,6.63,23.94,9.96,32.59,8.33,9.23-2.54,9-12.2-.87-18.83-19.34-11.06-46.87-2.6-31.73,10.5Z"/>
      <path class="cls-5" d="M1465.45,534.59c9.77-12.49,22.42,7.68,15.29,23.18-4.57,7.98-13.63,8.92-17.59,2.14-3-6.42-2.72-19.37,2.3-25.32Z"/>
    </g>
    <path class="cls-4" d="M1459.41,298.66c2.6-8.8-6.55-32.57,7.48-41.16,16.94-2.45,26.16,26.29,34.61,29,6.81-.33,22-12.41,31.81-3.74,8.39,14.09-7.31,23.01-9.36,30.87,2.07,6.65,18.94,22.14,10.29,32.75-9.57,8.12-27.36-5.81-33.68-5.62-5.25,1.46-4.36,9.19-11.35,19.71-25.34,35.29-25.95-4.05-28.87-22.52-6.77-.68-27,4.26-30.88-7.49-2.29-12.91,27.46-25.24,29.94-31.81Z"/>
    <path class="cls-4" d="M1556.68,471.99c-5.25-3.66-22.99-2.87-25.57-14.04,2.12-11.75,23.16-11.49,26.82-16.48-.19-9.91-1.83-31.38,15.57-18.25,9.43,12.09,3.74,10.76,18.91,6.31,25.12-1.09,6.77,16.81,1.2,24.54-.19,3.79,5.11,4.91,10.53,11.86,9.49,10.94,7.7,20.94-10.33,16.61-6-1.33-8.76-3.98-10.94-2.49-2.02,4.4-2.99,18.64-11.77,18.76-9.04-1.34-10.63-23.73-14.42-26.82Z"/>
    <g>
      <g>
        <path class="cls-22" d="M998.56,751.45c20.64-.41,6.37-16.5,5.51-28.95-32.17-21.04-59.69-4.75-89.32,14.32-13.73,6.47-55.43,6-65.76,10.41-18.89,5.09-91.03,46.91-128.32,90.38-13.68,15.34,10.95,44.07,16.35,58.27,10.28.52,26.32-7.92,11.24-8.89-35.85-48.12,43.68-85.48,56.32-22.13,0,0,146.04-84.09,146.04-84.09-37.58-41.7,27.18-93.23,47.95-29.31Z"/>
        <path class="cls-17" d="M998.56,753.95c6.01-.16,13.03-1.86,13.58-8.95.42-5.47-2.53-10.99-4.13-16.07-.44-1.39-.84-2.8-1.12-4.22-.16-.78-.21-1.07-.27-1.67-.17-1.6-.62-2.28-1.99-3.16-4.39-2.8-9.1-5.15-14.03-6.84-8.77-3.02-18.08-3.58-27.2-2.04s-17.7,5.11-25.84,9.3c-4.37,2.25-8.63,4.72-12.82,7.28-2.17,1.32-4.32,2.67-6.47,4.03-1.09.69-2.17,1.38-3.25,2.08-.5.32-1,.7-1.52.98-.15.08-.82.36-.36.17-5.26,2.19-11.17,3.01-16.78,3.77-6.95.94-13.95,1.53-20.93,2.17-10.22.93-20.55,1.56-30.27,5.06-9.93,3.58-19.36,8.77-28.52,13.97-13.51,7.66-26.61,16.06-39.29,25.03-14.02,9.91-27.59,20.54-40.19,32.22-5.93,5.5-11.65,11.25-16.98,17.33-2.23,2.54-4.16,5.05-5.19,8.32-.91,2.89-1.07,6.03-.73,9.03.79,7.05,3.67,13.68,6.88,19.95s6.81,12.04,10.15,18.1c.68,1.23,1.34,2.46,1.96,3.72.27.55.54,1.1.79,1.66.34.75.25.54.58,1.4.42,1.08,1.22,1.79,2.41,1.84,3.21.13,6.48-.42,9.55-1.31,2.64-.77,5.4-1.81,7.62-3.46,1.89-1.4,3.65-3.73,2.21-6.12-1.56-2.59-5.5-2.81-8.15-3l2.16,1.24c-3.01-4.06-5.58-8.51-7.11-13.07-.68-2.04-1.2-4.14-1.51-6.27-.07-.48.02.19-.04-.29-.03-.24-.05-.47-.07-.71-.05-.55-.09-1.09-.11-1.64-.04-.96-.04-1.91.01-2.87.02-.49.06-.97.11-1.46.02-.22.05-.44.07-.66.05-.43-.05.26.05-.32.15-.93.33-1.86.57-2.77.22-.86.48-1.72.78-2.56.15-.43.32-.86.49-1.29.05-.12-.12.25.08-.18.1-.22.2-.45.31-.67.76-1.6,1.66-3.13,2.69-4.58.12-.17.24-.34.37-.5.33-.46-.09.1.18-.23s.56-.7.86-1.04c.58-.68,1.2-1.33,1.84-1.96s1.25-1.18,1.91-1.73c.16-.13.32-.26.48-.39.08-.07.16-.13.24-.19.29-.23-.31.24-.02.01.36-.27.72-.53,1.08-.79,1.44-1.01,2.95-1.9,4.53-2.67.4-.2.81-.38,1.22-.57.17-.08.57-.24.16-.07.22-.09.45-.18.67-.27.83-.32,1.68-.61,2.54-.87s1.66-.46,2.5-.64c.4-.09.81-.17,1.21-.24.24-.04.47-.08.71-.12.2-.03.77-.1.25-.04,1.75-.21,3.5-.29,5.26-.21.41.02.83.04,1.24.08.24.02.48.04.72.07.12.01.78.1.49.06-.3-.04.29.05.39.06.21.03.41.07.62.11.45.08.89.17,1.33.28,3.79.88,6.43,2.06,9.71,4.37.19.13.37.26.55.4.34.25.13.09.22.16.43.33.84.68,1.25,1.04.75.65,1.47,1.34,2.15,2.06,1.63,1.7,2.6,2.97,3.85,4.9,2.77,4.27,4.57,8.78,5.89,13.68.39,1.46.73,2.93,1.03,4.41.32,1.59,2.36,2.27,3.67,1.49,4.79-2.86,9.67-5.57,14.5-8.35,11.65-6.71,23.3-13.42,34.95-20.13,14.05-8.09,28.11-16.19,42.16-24.28,12.18-7.01,24.35-14.02,36.53-21.03,5.87-3.38,11.89-6.59,17.65-10.16.08-.05.16-.09.24-.14,1.46-.84,1.56-2.74.51-3.93-3.18-3.55-5.87-7.5-7.82-11.86-1.49-3.33-2.62-7.78-2.86-11.22-.51-7.17,1.2-13.79,5.12-19.74,1.05-1.59,1.56-2.25,2.91-3.72,1.12-1.21,2.32-2.33,3.61-3.35.33-.26-.46.34.09-.07.17-.13.35-.26.52-.38.29-.21.59-.41.89-.61.71-.47,1.45-.92,2.2-1.32,1.73-.94,2.29-1.18,4.05-1.75.73-.24,1.47-.44,2.22-.61.37-.08.75-.16,1.13-.23.17-.03.34-.06.52-.09.42-.07-.34.02.37-.05,1.61-.16,3.22-.19,4.83-.04.14.01.28.03.42.04.71.07-.53-.09.18.02.42.07.85.14,1.27.23.82.17,1.63.39,2.43.64.39.13.77.26,1.16.41.21.08.42.16.63.25-.44-.18.03.01.13.06.81.37,1.61.78,2.38,1.23,3.64,2.12,6.84,5.25,9.38,8.79,3.58,5,6.09,10.65,8,16.47,1,3.04,5.83,1.74,4.82-1.33-3.32-10.12-8.45-20.23-17.23-26.65-6.21-4.54-14.02-6.26-21.54-4.63-15.22,3.28-25.46,18.59-25.59,33.65-.1,11.06,4.97,21.27,12.23,29.37l.51-3.93c-4.83,2.78-9.67,5.57-14.5,8.35-11.65,6.71-23.3,13.42-34.95,20.13-14.05,8.09-28.11,16.19-42.16,24.28-12.18,7.01-24.35,14.02-36.53,21.04-3.99,2.3-7.99,4.6-11.98,6.9-1.87,1.08-3.88,2.04-5.66,3.26-.08.05-.16.09-.24.14l3.67,1.49c-2.36-11.66-7.72-23.3-17.9-30.07-7.77-5.18-17.58-6.49-26.56-4.14s-16.61,7.96-21.32,15.71c-5.23,8.59-5.86,19.11-2.64,28.54,1,2.93,2.31,5.77,3.85,8.45.81,1.41,1.68,2.77,2.61,4.1.55.78,1.13,1.88,1.96,2.37.96.56,2.33.38,3.41.58.4.07.8.17,1.2.28.16.05.34.1.49.16-.04-.02-.33-.11-.08-.03.12.04.22.15.34.19.25.08-.15-.28-.11-.08.03.18-.14-.18-.16-.23.16.28-.12-.35-.13-.46-.01-.08.07-.85.02-.56-.04.27.32-.4.11-.21-.17.15-.35.44-.03.09-.18.19-.36.37-.56.54-.06.06-.36.28-.01.02-.13.09-.26.19-.39.27-2.77,1.73-5.88,2.73-9.12,3.33-1.64.3-3.3.42-4.96.36l2.41,1.84c-1.86-4.83-4.55-9.3-7.14-13.76-3.1-5.36-6.23-10.72-8.82-16.36-2.27-4.95-4.29-10.43-4.38-15.78-.04-2.3.29-4.6,1.17-6.54,1.17-2.59,3.09-4.49,5-6.61,9.61-10.7,20.32-20.4,31.46-29.48,11.29-9.21,23.11-17.77,35.26-25.83,10.64-7.05,21.54-13.74,32.76-19.84,4.32-2.35,8.69-4.61,13.14-6.71.93-.44,1.87-.87,2.81-1.29.41-.18.82-.36,1.23-.54.2-.09.4-.17.6-.26.53-.23-.15.06.37-.16,1.47-.61,2.95-1.2,4.46-1.71,8.25-2.82,16.28-3.49,24.92-4.29,11.86-1.1,23.95-1.76,35.59-4.41,2.13-.49,4.26-1.06,6.3-1.87,3.53-1.4,6.67-3.89,9.88-5.89,7.18-4.48,14.5-8.78,22.23-12.26,6.92-3.11,14.34-5.54,21.92-6.26s15.58.35,22.91,3.16c4.12,1.58,8.02,3.73,11.72,6.13l-1.24-2.16c.4,5.2,2.43,9.99,4.06,14.88.36,1.08.71,2.17.99,3.28.14.53.26,1.07.36,1.61.04.24.09.48.12.72-.06-.45.02.23.03.38.04.48.03.95.02,1.42,0,.22-.08.61,0,.16-.04.23-.09.46-.15.69-.02.09-.21.64-.1.35.11-.27-.15.29-.21.4-.1.17-.21.34-.32.49.3-.39-.08.05-.21.18-.56.52-1.38.93-2.45,1.24-1.68.48-3.41.6-5.15.65-3.21.08-3.22,5.08,0,5Z"/>
      </g>
      <path class="cls-17" d="M900.79,752.75c-40.79,20.37-83.5,46.22-126.9,60.48,32.59-36.73,73.75-61.2,126.9-60.48Z"/>
      <path class="cls-3" d="M982.46,764.83c-8.24,8.78-24.29,8.01-32.11-1.33-18.18-43.86,56.4-41.45,32.11,1.33Z"/>
      <path class="cls-3" d="M793.3,870.03c-3.57,13.51-20.38,21.58-33.51,16.37-42.76-34.73,34.68-73.44,33.51-16.37Z"/>
    </g>
  </g>
</svg>