<?xml version="1.0" encoding="UTF-8"?>
<svg id="Layer_2" data-name="Layer 2" xmlns="http://www.w3.org/2000/svg" viewBox="0 0 298.1 188.23">
  <defs>
    <style>
      .cls-1 {
        stroke: #231f20;
        stroke-miterlimit: 10;
        stroke-width: 4.21px;
      }

      .cls-1, .cls-2 {
        fill: #231f20;
      }

      .cls-2, .cls-3 {
        stroke-width: 0px;
      }

      .cls-3 {
        fill: #c77161;
      }
    </style>
  </defs>
  <g id="Layer_11" data-name="Layer 11">
    <g>
      <g>
        <path class="cls-3" d="M284.47,41.28c20.64-.41,6.37-16.5,5.51-28.95-32.17-21.04-59.69-4.75-89.32,14.32-13.73,6.47-55.43,6-65.76,10.41-18.89,5.09-91.03,46.91-128.32,90.38-13.68,15.34,10.95,44.07,16.35,58.27,10.28.52,26.32-7.92,11.24-8.89-35.85-48.12,43.68-85.48,56.32-22.13,0,0,146.04-84.09,146.04-84.09-37.58-41.7,27.18-93.23,47.95-29.31Z"/>
        <path class="cls-2" d="M284.47,43.78c6.01-.16,13.03-1.86,13.58-8.95.42-5.47-2.53-10.99-4.13-16.07-.44-1.39-.84-2.8-1.12-4.22-.16-.78-.21-1.07-.27-1.67-.17-1.6-.62-2.28-1.99-3.16-4.39-2.8-9.1-5.15-14.03-6.84-8.77-3.02-18.08-3.58-27.2-2.04s-17.7,5.11-25.84,9.3c-4.37,2.25-8.63,4.72-12.82,7.28-2.17,1.32-4.32,2.67-6.47,4.03-1.09.69-2.17,1.38-3.25,2.08-.5.32-1,.7-1.52.98-.15.08-.82.36-.36.17-5.26,2.19-11.17,3.01-16.78,3.77-6.95.94-13.95,1.53-20.93,2.17-10.22.93-20.55,1.56-30.27,5.06-9.93,3.58-19.36,8.77-28.52,13.97-13.51,7.66-26.61,16.06-39.29,25.03-14.02,9.91-27.59,20.54-40.19,32.22-5.93,5.5-11.65,11.25-16.98,17.33-2.23,2.54-4.16,5.05-5.19,8.32-.91,2.89-1.07,6.03-.73,9.03.79,7.05,3.67,13.68,6.88,19.95s6.81,12.04,10.15,18.1c.68,1.23,1.34,2.46,1.96,3.72.27.55.54,1.1.79,1.66.34.75.25.54.58,1.4.42,1.08,1.22,1.79,2.41,1.84,3.21.13,6.48-.42,9.55-1.31,2.64-.77,5.4-1.81,7.62-3.46,1.89-1.4,3.65-3.73,2.21-6.12-1.56-2.59-5.5-2.81-8.15-3l2.16,1.24c-3.01-4.06-5.58-8.51-7.11-13.07-.68-2.04-1.2-4.14-1.51-6.27-.07-.48.02.19-.04-.29-.03-.24-.05-.47-.07-.71-.05-.55-.09-1.09-.11-1.64-.04-.96-.04-1.91.01-2.87.02-.49.06-.97.11-1.46.02-.22.05-.44.07-.66.05-.43-.05.26.05-.32.15-.93.33-1.86.57-2.77.22-.86.48-1.72.78-2.56.15-.43.32-.86.49-1.29.05-.12-.12.25.08-.18.1-.22.2-.45.31-.67.76-1.6,1.66-3.13,2.69-4.58.12-.17.24-.34.37-.5.33-.46-.09.1.18-.23s.56-.7.86-1.04c.58-.68,1.2-1.33,1.84-1.96s1.25-1.18,1.91-1.73c.16-.13.32-.26.48-.39.08-.07.16-.13.24-.19.29-.23-.31.24-.02.01.36-.27.72-.53,1.08-.79,1.44-1.01,2.95-1.9,4.53-2.67.4-.2.81-.38,1.22-.57.17-.08.57-.24.16-.07.22-.09.45-.18.67-.27.83-.32,1.68-.61,2.54-.87s1.66-.46,2.5-.64c.4-.09.81-.17,1.21-.24.24-.04.47-.08.71-.12.2-.03.77-.1.25-.04,1.75-.21,3.5-.29,5.26-.21.41.02.83.04,1.24.08.24.02.48.04.72.07.12.01.78.1.49.06-.3-.04.29.05.39.06.21.03.41.07.62.11.45.08.89.17,1.33.28,3.79.88,6.43,2.06,9.71,4.37.19.13.37.26.55.4.34.25.13.09.22.16.43.33.84.68,1.25,1.04.75.65,1.47,1.34,2.15,2.06,1.63,1.7,2.6,2.97,3.85,4.9,2.77,4.27,4.57,8.78,5.89,13.68.39,1.46.73,2.93,1.03,4.41.32,1.59,2.36,2.27,3.67,1.49,4.79-2.86,9.67-5.57,14.5-8.35,11.65-6.71,23.3-13.42,34.95-20.13,14.05-8.09,28.11-16.19,42.16-24.28,12.18-7.01,24.35-14.02,36.53-21.03,5.87-3.38,11.89-6.59,17.65-10.16.08-.05.16-.09.24-.14,1.46-.84,1.56-2.74.51-3.93-3.18-3.55-5.87-7.5-7.82-11.86-1.49-3.33-2.62-7.78-2.86-11.22-.51-7.17,1.2-13.79,5.12-19.74,1.05-1.59,1.56-2.25,2.91-3.72,1.12-1.21,2.32-2.33,3.61-3.35.33-.26-.46.34.09-.07.17-.13.35-.26.52-.38.29-.21.59-.41.89-.61.71-.47,1.45-.92,2.2-1.32,1.73-.94,2.29-1.18,4.05-1.75.73-.24,1.47-.44,2.22-.61.37-.08.75-.16,1.13-.23.17-.03.34-.06.52-.09.42-.07-.34.02.37-.05,1.61-.16,3.22-.19,4.83-.04.14.01.28.03.42.04.71.07-.53-.09.18.02.42.07.85.14,1.27.23.82.17,1.63.39,2.43.64.39.13.77.26,1.16.41.21.08.42.16.63.25-.44-.18.03.01.13.06.81.37,1.61.78,2.38,1.23,3.64,2.12,6.84,5.25,9.38,8.79,3.58,5,6.09,10.65,8,16.47,1,3.04,5.83,1.74,4.82-1.33-3.32-10.12-8.45-20.23-17.23-26.65-6.21-4.54-14.02-6.26-21.54-4.63-15.22,3.28-25.46,18.59-25.59,33.65-.1,11.06,4.97,21.27,12.23,29.37l.51-3.93c-4.83,2.78-9.67,5.57-14.5,8.35-11.65,6.71-23.3,13.42-34.95,20.13-14.05,8.09-28.11,16.19-42.16,24.28-12.18,7.01-24.35,14.02-36.53,21.04-3.99,2.3-7.99,4.6-11.98,6.9-1.87,1.08-3.88,2.04-5.66,3.26-.08.05-.16.09-.24.14l3.67,1.49c-2.36-11.66-7.72-23.3-17.9-30.07-7.77-5.18-17.58-6.49-26.56-4.14s-16.61,7.96-21.32,15.71c-5.23,8.59-5.86,19.11-2.64,28.54,1,2.93,2.31,5.77,3.85,8.45.81,1.41,1.68,2.77,2.61,4.1.55.78,1.13,1.88,1.96,2.37.96.56,2.33.38,3.41.58.4.07.8.17,1.2.28.16.05.34.1.49.16-.04-.02-.33-.11-.08-.03.12.04.22.15.34.19.25.08-.15-.28-.11-.08.03.18-.14-.18-.16-.23.16.28-.12-.35-.13-.46-.01-.08.07-.85.02-.56-.04.27.32-.4.11-.21-.17.15-.35.44-.03.09-.18.19-.36.37-.56.54-.06.06-.36.28-.01.02-.13.09-.26.19-.39.27-2.77,1.73-5.88,2.73-9.12,3.33-1.64.3-3.3.42-4.96.36l2.41,1.84c-1.86-4.83-4.55-9.3-7.14-13.76-3.1-5.36-6.23-10.72-8.82-16.36-2.27-4.95-4.29-10.43-4.38-15.78-.04-2.3.29-4.6,1.17-6.54,1.17-2.59,3.09-4.49,5-6.61,9.61-10.7,20.32-20.4,31.46-29.48,11.29-9.21,23.11-17.77,35.26-25.83,10.64-7.05,21.54-13.74,32.76-19.84,4.32-2.35,8.69-4.61,13.14-6.71.93-.44,1.87-.87,2.81-1.29.41-.18.82-.36,1.23-.54.2-.09.4-.17.6-.26.53-.23-.15.06.37-.16,1.47-.61,2.95-1.2,4.46-1.71,8.25-2.82,16.28-3.49,24.92-4.29,11.86-1.1,23.95-1.76,35.59-4.41,2.13-.49,4.26-1.06,6.3-1.87,3.53-1.4,6.67-3.89,9.88-5.89,7.18-4.48,14.5-8.78,22.23-12.26,6.92-3.11,14.34-5.54,21.92-6.26s15.58.35,22.91,3.16c4.12,1.58,8.02,3.73,11.72,6.13l-1.24-2.16c.4,5.2,2.43,9.99,4.06,14.88.36,1.08.71,2.17.99,3.28.14.53.26,1.07.36,1.61.04.24.09.48.12.72-.06-.45.02.23.03.38.04.48.03.95.02,1.42,0,.22-.08.61,0,.16-.04.23-.09.46-.15.69-.02.09-.21.64-.1.35.11-.27-.15.29-.21.4-.1.17-.21.34-.32.49.3-.39-.08.05-.21.18-.56.52-1.38.93-2.45,1.24-1.68.48-3.41.6-5.15.65-3.21.08-3.22,5.08,0,5Z"/>
      </g>
      <path class="cls-2" d="M186.7,42.59c-40.79,20.37-83.5,46.22-126.9,60.48,32.59-36.73,73.75-61.2,126.9-60.48Z"/>
      <path class="cls-1" d="M268.37,54.67c-8.24,8.78-24.29,8.01-32.11-1.33-18.18-43.86,56.4-41.45,32.11,1.33Z"/>
      <path class="cls-1" d="M79.21,159.87c-3.57,13.51-20.38,21.58-33.51,16.37-42.76-34.73,34.68-73.44,33.51-16.37Z"/>
       
    </g> 
  </g>
   
</svg>