<?xml version="1.0" encoding="UTF-8"?>
<svg id="Layer_2" data-name="Layer 2" xmlns="http://www.w3.org/2000/svg" viewBox="0 0 101.22 94.61">
  <defs>
    <style>
      .cls-1 {
        fill: #231f20;
      }

      .cls-1, .cls-2 {
        stroke-width: 0px;
      }

      .cls-2 {
        fill: #a1cf6d;
      }

      .cls-3 {
        fill: #0a0203;
      }

      .cls-3, .cls-4 {
        stroke: #231f20;
        stroke-miterlimit: 10;
      }

      .cls-4 {
        fill: #fff;
        stroke-width: 4.6px;
      }
    </style>
  </defs>
  <g id="Layer_3" data-name="Layer 3">
    <g>
      <g>
        <g>
          <path class="cls-2" d="M43.47,6.79c-6.41-.88-13.31-.43-18.77,3.04-5.46,3.47-8.95,10.56-6.75,16.65l-1.35,4.27c-7.82-.27-14.14,7.77-14.14,15.59,0,7.04,3.31,19.49,16.04,19.49,5.39,0,1.69,8.52,6.25,11.39l2.33-.64c.92,5.54,4.71,10.43,9.66,13.08,4.95,2.65,10.94,3.12,16.37,1.69,2.27-.6,3.61-1.41,5.42-2.9.24-.2.78-.8,1.07-.98.09-.05.19-.07.28-.03,1.32.59,7.42,3.1,11.13,1.54,4.19-1.76,7.02-5.68,9.41-9.54,2.56-4.14,4.91-8.6,5.32-13.45l3.07,2.16c2.35,2.25,6.58.85,8.31-1.9,1.73-2.75,1.67-6.23,1.48-9.48-.21-3.46-.64-7.25-3.14-9.66-3.19-3.08-8.28-2.62-12.66-1.95l4.03-5.22c2.66-3.6,2.59-8.97-.15-12.51-2.74-3.54-7.92-4.95-12.07-3.28l.54-.44c.57-5.49.99-11.57-2.35-15.96-3.74-4.92-10.84-5.81-16.96-4.94-3.97.57-8.01,1.79-10.99,4.48-2.98,2.69-4.63,7.13-3.17,10.87"/>
          <path class="cls-1" d="M43.47,4.29c-7.45-.99-15.63-.2-21.72,4.6-5.31,4.2-8.48,11.63-6.22,18.26v-1.33c-.45,1.42-.9,2.84-1.35,4.27l2.41-1.84c-6.42-.12-12.05,4.28-14.71,9.93-2.27,4.82-2.32,10.04-1.06,15.14,1.18,4.74,3.65,9.17,7.67,12.05,2.24,1.61,4.9,2.47,7.61,2.81.73.09,1.47.15,2.2.15.14,0,.29,0,.44,0-.07,0-.32.01-.08-.01.11-.01.21.08.31.08-.2,0-.28-.21-.06,0-.33-.29-.07-.1.06.08-.26-.36-.07-.1.03.12.17.37-.05-.35.08.25.06.25.13.49.19.74.06.27.1.53.14.8.05.29,0-.02,0-.06.02.16.04.33.06.49.1.77.19,1.53.31,2.3.21,1.27.57,2.54,1.2,3.67.86,1.52,2.51,3.25,4.42,2.85.78-.16,1.56-.43,2.33-.64l-3.08-1.75c1.35,7.61,7.28,13.72,14.49,16.15,3.9,1.31,8.09,1.5,12.14.87,1.9-.29,3.77-.79,5.5-1.64,1.52-.75,2.95-2.15,4.06-3l-1.26.34.28-.03-1.26-.34c2.64,1.16,5.38,2.04,8.26,2.32,3.89.38,7.24-1.32,10.05-3.91,2.9-2.68,5.07-6.19,7.01-9.6,2.2-3.88,3.87-7.95,4.29-12.42l-3.76,2.16c.77.54,1.54,1.08,2.3,1.62.16.11,1.07.81.5.36.78.62,1.58,1.13,2.56,1.39,3.71,1,7.81-1.08,9.65-4.35,2.13-3.76,1.89-8.49,1.43-12.65s-1.7-8.1-5.33-10.46c-3.95-2.58-9.05-1.96-13.46-1.3l2.82,3.67c1.17-1.52,2.34-3.03,3.51-4.55,1.93-2.5,2.99-5.57,2.79-8.76-.25-4.17-2.34-7.95-5.92-10.18-3.34-2.08-7.71-2.6-11.39-1.2l2.43,4.18c.82-.67,1.17-1.31,1.29-2.4.13-1.19.23-2.39.3-3.59.13-2.41.06-4.83-.38-7.21-.84-4.48-3.56-8.43-7.65-10.51C66.05.23,61.54-.28,57.25.13c-4.84.46-9.74,1.73-13.57,4.86s-6.22,8.87-4.42,13.82c.46,1.27,1.7,2.12,3.08,1.75,1.22-.34,2.21-1.8,1.75-3.08-1.08-2.95.06-6.05,2.26-8.18,2.57-2.49,6.3-3.51,9.75-4.03,5.77-.86,13.46-.02,15.95,6.17,1.54,3.83,1.01,8.27.6,12.26l.73-1.77-.54.44c-1.9,1.56.14,5.05,2.43,4.18,5.66-2.15,11.77,2.17,10.95,8.37-.27,2.01-1.36,3.5-2.55,5.05-1.01,1.31-2.02,2.62-3.03,3.93-.59.77-.35,2.09.2,2.78.68.85,1.59,1.05,2.63.9,3.21-.48,7.62-1.15,10.23,1.3s2.5,7.27,2.5,10.56c0,3-.84,7.24-4.36,7.33-.87.02-1.52-.62-2.43-1.26-.8-.56-1.59-1.12-2.39-1.68-1.7-1.2-3.6.46-3.76,2.16-.53,5.5-3.78,10.74-6.92,15.14-1.4,1.96-3.08,3.8-5.18,5.01-1.8,1.03-3.57.99-5.59.54-1.01-.22-2-.51-2.97-.85-.35-.12-.69-.25-1.03-.38-.15-.06-.31-.12-.46-.19.63.26.19.08.06.02-1.71-.73-2.84-.01-4.09,1.13-.82.76-1.76,1.42-2.77,1.9-4.5,2.11-10.68,1.73-15.14-.25-5.01-2.23-8.68-6.73-9.64-12.14-.24-1.33-1.87-2.08-3.08-1.75l-2.33.64,1.93.25c-.24-.16-.38-.3-.51-.49-.09-.13-.17-.28-.25-.42-.37-.65.12.41-.14-.3-.14-.39-.25-.79-.34-1.2-.05-.25-.1-.5-.14-.75-.01-.07-.12-.77-.06-.34-.27-1.92-.34-3.94-1.33-5.66-1.29-2.23-3.46-2.47-5.79-2.6-2.05-.12-3.97-.7-5.63-1.72-2.94-1.81-4.82-5.03-5.83-8.37-.26-.87-.48-1.76-.65-2.66-.07-.39-.14-.79-.2-1.18.08.56-.02-.2-.03-.26-.02-.22-.05-.45-.07-.67-.17-2-.09-3.95.48-5.89,1.45-4.92,5.69-9.41,11.07-9.31,1.13.02,2.08-.8,2.41-1.84.29-.91.57-1.81.86-2.72.41-1.31.68-2.14.27-3.56-.94-3.26.1-6.65,1.95-9.39,4.64-6.83,13.94-7.44,21.38-6.46,1.34.18,2.5-1.28,2.5-2.5,0-1.5-1.16-2.32-2.5-2.5h0Z"/>
        </g>
        <g>
          <path class="cls-4" d="M27.2,29.41c-3.14,7.2-2.74,18.44-2.88,24.58.12,1.85,1.49,4.18,3.18,4.87,1.41.7,2.67.84,4.39.85,3.79.02,7.35-2.07,8.98-5.5.89-1.88,1.42-3.93,2-5.77.57-2.62,1.53-6.66,1.94-10.77-5.46-3.9-11.28-7.15-17.61-8.26Z"/>
          <path class="cls-3" d="M40.27,68.77c-.98.1-1.66,1.02-1.46,1.98.23,1.12.72,2.51,1.76,3.82,2.35,2.95,5.87,3.44,7.72,3.47.7.01,1.37-.28,1.81-.83,2.98-3.79,7.27-6.74,12.13-9.22.74-.38.4-1.5-.42-1.41-7.18.73-14.36,1.47-21.53,2.2Z"/>
          <path class="cls-2" d="M39.02,44.18c.42,3.93-4.72,5.83-5.73,1.49-.7-2.11.91-4.56,3.04-4.73,1.31.64,2.97,1.55,2.69,3.23Z"/>
        </g>
        <g>
          <path class="cls-4" d="M70.12,30.94c3.14,7.2,2.74,18.44,2.88,24.58-.12,1.85-1.49,4.18-3.18,4.87-1.79.89-3.65,1.07-5.44.48-.81-.27-1.66-.38-2.49-.53-4.33-.78-6.28-6.64-7.44-10.37-.57-2.62-1.53-6.66-1.94-10.77,5.46-3.9,11.28-7.15,17.61-8.26Z"/>
          <path class="cls-2" d="M58.3,45.71c-.42,3.93,4.72,5.83,5.73,1.49.7-2.11-.91-4.56-3.04-4.73-1.31.64-2.97,1.55-2.69,3.23Z"/>
        </g>
      </g>
      <path class="cls-1" d="M53.99,30.51c2.15-2.13,4.09-4.45,5.86-6.91.36-.5.41-1.36.25-1.93s-.61-1.21-1.15-1.49c-.58-.31-1.28-.46-1.93-.25s-1.1.59-1.49,1.15c-.36.51-.74,1.01-1.12,1.5l.39-.51c-1.34,1.73-2.79,3.37-4.35,4.9-.93.92-.99,2.63,0,3.54s2.54.98,3.54,0h0Z"/>
      <path class="cls-1" d="M44.88,25.45c-2.15-1.1-4.2-2.38-6.14-3.83-.49-.36-1.37-.41-1.93-.25s-1.21.61-1.49,1.15c-.31.58-.46,1.28-.25,1.93l.25.6c.22.38.52.67.9.9,1.94,1.44,3.99,2.73,6.14,3.83.6.31,1.27.43,1.93.25.58-.16,1.21-.61,1.49-1.15.6-1.14.35-2.78-.9-3.42h0Z"/>
    </g>
  </g>
</svg>