<?xml version="1.0" encoding="UTF-8"?>
<svg id="Layer_2" data-name="Layer 2" xmlns="http://www.w3.org/2000/svg" viewBox="0 0 1690.97 882.7">
  <defs>
    <style>
      .cls-1 {
        fill: #00b1dc;
      }

      .cls-1, .cls-2 {
        stroke: #231f20;
        stroke-miterlimit: 10;
        stroke-width: 4.6px;
      }

      .cls-2 {
        fill: #a1cf6d;
      }
    </style>
  </defs>
  <g id="Bakgrunn">
    <g>
      <path class="cls-1" d="M1688.67,367.68c-31.77-77.49-71.03-145.59-119.32-190.22-11.09-9-22.46-18.66-34.2-28.18.42.29.88.49,1.28.82-29.08-23.05-59.9-46.19-94.75-55.98.88-.16-247.68-83.39-372.12-85.12C700.97.67,218.47,160,2.3,482.06v398.34h1686.36V367.68Z"/>
      <path class="cls-2" d="M909.91,693.37c-15.06-4.75-35.94,3.05-45.12-9.46-6.24-8.5-18.14,3.01-26.97,1.89-4.4-.55-13.34,2.05-14.75,2.79-14.57,7.65-31.76,2.5-37.32-10.85-2.01-6.58-14.8-.7-14-11.04-4.05-20.65-1.25-43.47,6.62-64.38,3.5-15.59-4.43-34.49,4.59-48.72,11.18-1.56-.59-8.59,3.19-12.8,12.51-3.96,9.25-26.31,18.67-26.02,6.79-.1,9.77-5.47,13.93-9.24,22.59,4.59,52.82,1.53,68.65,25.15,2.42-3.42,4.92-7.3,6.79-.08.42,14.72,19.11,18.9,20.04,30.11-.17,2.84.29,4.89,3.92,5.83,14.31,2.89,4.49,24.32,19.81,25.72,4.78,3.07,4.7,11.74,12.02,12.62,3.13.97,3.64,2.58,3.63,5.2-2.62,9.26,11.68,13.9,5.06,22.07-4.18,16.96-.43,43.08-20.28,51.44-4.02,13.15-15.82,15.1-28.47,9.76Z"/>
      <path class="cls-2" d="M1006.2,112.12c-.42,7.02-9.68,7.95-5.89,16.05.88,1.8.45,4.66-1.92,5.6-11.35,6.48,7.58,22.36-9.69,25.81-3.92,26.66,18.74,50.86,24.13,76.36,11.64,28.85-12.22,63.24-38.99,73.36-5.05.64-46.31,18.52-46.31,18.52-13.15,7.75-32.55-10.28-43.22-15.79-16.68-8.62-21.87-33-31.2-50.46-15.68-16.63-27.73-42.22-53.8-41.69-7.79-4.77-18.38-12.16-27.53-7.71-53.24.61-114.97-92.63-108.39-140.08,17.66-43.81,453.03-110.13,408.33-37.37,0,0,3.97,8.24-.31,12.7h0c-7.47,6.95-18.48,13.53-27.26,19.61-5.69,5.11-4.03,18.06-13.47,17.8-3.4-.4-3.92,1.79-4.54,4.23-4.89,8.97-12.94,15.68-19.92,23.06Z"/>
      <path class="cls-2" d="M453.1,263.26c-23.51,56.58-3.93,128.27-52.36,174.56-11.57,12.97-35.21,6.56-43.5,16.71-10.02,7.98-28.22,12.36-37.91,23.69-47.07,25.19-94.76,76.24-76.47,133.38,9.74,19.9-20.42,32.97-28.97,49.23-24.9,23.34-41.9,57.73-76.67,67.78-20.08,6.37-25.34-21.52-39.94-28.89-35.8-39.63,38.77-93.51,4.19-137.44-7.86-19.63-30.97-37.18-25.55-60.5,22.45-20.61,26.2-54.98,53.46-71.19,8.56-23.89,32.94-39.38,29.78-66.33,13.89-18.2-1.86-52.34,16.68-68.06,97.52-82.73,221.57-141.86,338.28-188.42,18.26-1.77,18.9,20.41,22.61,32.78-1.19,8.9-15.02,17.43-22.38,23.56-2.83.84-1.83,8.46-5.33,11.64,2.42,3.71,5.06-1.58,7.37.78-1.31,4.88-6.13,3.3-9.14,4.98-2.81,1.57-8.49.18-6.97,6.51-1.73,3.22-8.97,1.6-9.4,7.73-10.3,23.12-24.82,45.87-37.76,67.5Z"/>
      <path class="cls-2" d="M1673.44,876.75c5.14-1.36,10.21-2.32,15.22-2.9V317.58c-32.32-51.63-71.37-99.07-119.37-140.33,0,0-79.22-69.31-127.62-83.13,0,0-24.72-3.38-35.69-.59-12.04,31.28-41.82,58.44-36.25,94.94,12.23,26.99,36.07,47.82,52.5,73.06,97.9,85.58-22.65,191.21,45.19,298.28,20.4,61.7-26.73,117.2-66.72,152.07-25.66,35.34-12,78.85-25.22,117.43-10.21,6.18-7.93,17.16-12.83,25.55-6.61,6.12-10.99,13.75-13.32,21.9h324.12Z"/>
    </g>
  </g>
</svg>