<?xml version="1.0" encoding="UTF-8"?>
<svg id="Layer_2" data-name="Layer 2" xmlns="http://www.w3.org/2000/svg" viewBox="0 0 1046.82 716.11">
  <defs>
    <style>
      

      .cls-1, .cls-2, .cls-3 {
        fill: #231f20;
        font-family:"Comic Sans MS", "Comic Sans", sans-serif;
        font-weight: 600;
      }

      .cls-2 {
        font-size: 100px;
      }

     .cls-3 {
        font-size: 40px;
      }
    </style>
  </defs>
  <g id="Layer_3" data-name="Layer 3">  
    <text class="cls-2" transform="translate(115.68 594.26) rotate(-61.38)"><tspan x="0" y="0">7</tspan></text>
    <text class="cls-2" transform="translate(142.51 543.93) rotate(-47.52)"><tspan x="0" y="0">4</tspan></text>
    <text class="cls-1" transform="translate(183.29 501.86) rotate(-39.07)"><tspan x="0" y="0"> </tspan></text>
    <text class="cls-3" transform="translate(192.83 494.06) rotate(-36.14)"><tspan x="0" y="0">t</tspan></text>
    <text class="cls-3" transform="translate(203.65 485.9) rotate(-32.21)"><tspan x="0" y="0">u</tspan></text>
    <text class="cls-3" transform="translate(223.62 473.47) rotate(-28.58)"><tspan x="0" y="0">r</tspan></text>
    <text class="cls-3" transform="translate(235.14 467.04) rotate(-25.5)"><tspan x="0" y="0">e</tspan></text>
    <text class="cls-3" transform="translate(254.62 457.83) rotate(-22.63)"><tspan x="0" y="0">r</tspan></text>
    <text class="cls-3" transform="translate(267.68 452.43) rotate(-20.92)"><tspan x="0" y="0"> </tspan></text>
    <text class="cls-3" transform="translate(276.06 449.18) rotate(-19.32)"><tspan x="0" y="0">t</tspan></text>
    <text class="cls-3" transform="translate(289.62 444.45) rotate(-17.79)"><tspan x="0" y="0">i</tspan></text>
    <text class="cls-3" transform="translate(299.25 441.35) rotate(-16.62)"><tspan x="0" y="0">l</tspan></text>
    <text class="cls-3" transform="translate(309.06 438.43) rotate(-15.58)"><tspan x="0" y="0"> </tspan></text>
    <text class="cls-3" transform="translate(317.5 435.81) rotate(-13.47)"><tspan x="0" y="0">m</tspan></text>
    <text class="cls-3" transform="translate(353.3 427.4) rotate(-11.38)"><tspan x="0" y="0">å</tspan></text>
    <text class="cls-3" transform="translate(374.15 423.19) rotate(-10.17)"><tspan x="0" y="0">n</tspan></text>
    <text class="cls-3" transform="translate(398.45 418.85) rotate(-9.3)"><tspan x="0" y="0">e</tspan></text>
    <text class="cls-3" transform="translate(420.51 415.25) rotate(-8.81)"><tspan x="0" y="0">n</tspan></text>
    <text class="cls-3" transform="translate(445.17 411.43) rotate(-8.7)"><tspan x="0" y="0"> </tspan></text>
    <text class="cls-3" transform="translate(454.56 410.01) rotate(-8.77)"><tspan x="0" y="0">o</tspan></text>
    <text class="cls-3" transform="translate(478.79 406.27) rotate(-9.39)"><tspan x="0" y="0">g</tspan></text>
    <text class="cls-3" transform="translate(503.77 402.11) rotate(-9.88)"><tspan x="0" y="0"> </tspan></text>
    <text class="cls-3" transform="translate(513.5 400.42) rotate(-10.26)"><tspan x="0" y="0">t</tspan></text>
    <text class="cls-3" transform="translate(528.5 397.7) rotate(-10.69)"><tspan x="0" y="0">i</tspan></text>
    <text class="cls-3" transform="translate(539.2 395.67) rotate(-11.08)"><tspan x="0" y="0">l</tspan></text>
    <text class="cls-3" transform="translate(550.21 393.56) rotate(-11.78)"><tspan x="0" y="0">b</tspan></text>
    <text class="cls-3" transform="translate(576.17 388.13) rotate(-12.81)"><tspan x="0" y="0">a</tspan></text>
    <text class="cls-3" transform="translate(598.21 383.11) rotate(-13.83)"><tspan x="0" y="0">k</tspan></text>
    <text class="cls-3" transform="translate(619.69 377.82) rotate(-14.99)"><tspan x="0" y="0">e</tspan></text>
   
  </g>
</svg>