<?xml version="1.0" encoding="UTF-8"?>
<svg id="Layer_2" data-name="Layer 2" xmlns="http://www.w3.org/2000/svg" viewBox="0 0 83.33 84.33">
  <defs>
    <style>
      .cls-1 {
        fill: #f5ec43;
        stroke: #231f20;
        stroke-miterlimit: 10;
        stroke-width: 4.6px;
      }
    </style>
  </defs>
  <g id="Layer_11" data-name="Layer 11">
    <path class="cls-1" d="M27.92,55.21c-5.25-3.66-22.99-2.87-25.57-14.04,2.12-11.75,23.16-11.49,26.82-16.48-.19-9.91-1.83-31.38,15.57-18.25,9.43,12.09,3.74,10.76,18.91,6.31,25.12-1.09,6.77,16.81,1.2,24.54-.19,3.79,5.11,4.91,10.53,11.86,9.49,10.94,7.7,20.94-10.33,16.61-6-1.33-8.76-3.98-10.94-2.49-2.02,4.4-2.99,18.64-11.77,18.76-9.04-1.34-10.63-23.73-14.42-26.82Z"/>
  </g>
</svg>