<?xml version="1.0" encoding="UTF-8"?>
<svg id="Layer_2" data-name="Layer 2" xmlns="http://www.w3.org/2000/svg" viewBox="0 0 111.96 121.92">
  <defs>
    <style>
      .cls-1 {
        fill: #f5ec43;
        stroke: #231f20;
        stroke-miterlimit: 10;
        stroke-width: 4.6px;
      }
    </style>
  </defs>
  <g id="Layer_11" data-name="Layer 11">
    <path class="cls-1" d="M32.36,43.61c2.6-8.8-6.55-32.57,7.48-41.16C56.79,0,66.01,28.74,74.46,31.45c6.81-.33,22-12.41,31.81-3.74,8.39,14.09-7.31,23.01-9.36,30.87,2.07,6.65,18.94,22.14,10.29,32.75-9.57,8.12-27.36-5.81-33.68-5.62-5.25,1.46-4.36,9.19-11.35,19.71-25.34,35.29-25.95-4.05-28.87-22.52-6.77-.68-27,4.26-30.88-7.49-2.29-12.91,27.46-25.24,29.94-31.81Z"/>
  </g>
</svg>